solid Sword2
facet normal -0.707106781186227 -3.48899481588439e-14 0.707106781186868
  outer loop
    vertex 2189.3426867263925 497.3647040315282 17.000000000002466
    vertex 2193.342686726393 541.3647040315288 21.000000000002533
    vertex 2189.342686726388 541.3647040315288 17.00000000000445
  endloop
endfacet
facet normal -0.707106781186227 -3.48899481588439e-14 0.707106781186868
  outer loop
    vertex 2193.342686726393 541.3647040315288 21.000000000002533
    vertex 2189.3426867263925 497.3647040315282 17.000000000002466
    vertex 2193.342686726392 497.36470403152845 21.000000000002444
  endloop
endfacet
facet normal -0.707106781186227 -3.48899481588439e-14 0.707106781186868
  outer loop
    vertex 2193.342686726393 541.3647040315288 21.000000000002533
    vertex 2193.342686726392 497.36470403152845 21.000000000002444
    vertex 2193.342686726393 499.3647040315293 21.000000000001968
  endloop
endfacet
facet normal -0.707106781186227 -3.48899481588439e-14 0.707106781186868
  outer loop
    vertex 2193.342686726393 541.3647040315288 21.000000000002533
    vertex 2193.342686726393 499.3647040315293 21.000000000001968
    vertex 2193.342686726393 539.3647040315285 21.000000000002466
  endloop
endfacet
facet normal -6.868763506409701e-15 -1.0 -2.2392544031632555e-14
  outer loop
    vertex 2215.3426867263925 497.3647040315287 1.0000000000024571
    vertex 2189.342686726392 497.36470403152885 -0.9999999999979244
    vertex 2215.342686726394 497.3647040315285 -0.9999999999983079
  endloop
endfacet
facet normal -6.868763506409701e-15 -1.0 -2.2392544031632555e-14
  outer loop
    vertex 2189.342686726392 497.36470403152885 -0.9999999999979244
    vertex 2215.3426867263925 497.3647040315287 1.0000000000024571
    vertex 2189.3426867263925 497.3647040315282 17.000000000002466
  endloop
endfacet
facet normal -6.868763506409701e-15 -1.0 -2.2392544031632555e-14
  outer loop
    vertex 2189.3426867263925 497.3647040315282 17.000000000002466
    vertex 2215.3426867263925 497.3647040315287 1.0000000000024571
    vertex 2193.342686726392 497.36470403152845 21.000000000002444
  endloop
endfacet
facet normal 0.9238795325129883 0.3826834323609823 -1.822817896863861e-18
  outer loop
    vertex 2197.920820010935 536.8593644228539 7.000000000000377
    vertex 2198.020720433439 536.6181834679558 7.000000000000377
    vertex 2197.920820010935 536.8593644228539 1.0000000000003781
  endloop
endfacet
facet normal 0.608761429010279 -0.7933533402900395 -4.245432799967044e-18
  outer loop
    vertex 2197.5547946071506 535.493339019069 7.000000000000377
    vertex 2197.5547946071506 535.493339019069 1.0000000000003775
    vertex 2197.761901388337 535.6522576416672 7.000000000000377
  endloop
endfacet
facet normal -0.6087614290076229 0.7933533402920776 2.122716399966777e-18
  outer loop
    vertex 2203.847687825963 512.0664712040394 7.000000000000375
    vertex 2204.05479460715 512.2253898266374 1.0000000000003761
    vertex 2203.847687825963 512.0664712040394 1.0000000000003761
  endloop
endfacet
facet normal 1.4271160643590214e-14 1.0 -1.401637844374538e-14
  outer loop
    vertex 2189.342686726393 541.3647040315284 -0.9999999999999999
    vertex 2198.342686726394 541.3647040315286 3.0000000000002354
    vertex 2215.342686726394 541.364704031528 -0.9999999999999999
  endloop
endfacet
facet normal 1.4271160643590214e-14 1.0 -1.401637844374538e-14
  outer loop
    vertex 2198.342686726394 541.3647040315286 3.0000000000002354
    vertex 2189.342686726393 541.3647040315284 -0.9999999999999999
    vertex 2189.342686726388 541.3647040315288 17.00000000000445
  endloop
endfacet
facet normal 1.4271160643590214e-14 1.0 -1.401637844374538e-14
  outer loop
    vertex 2215.342686726394 541.364704031528 -0.9999999999999999
    vertex 2198.342686726394 541.3647040315286 3.0000000000002354
    vertex 2215.342686726394 541.3647040315283 3.0000000000001563
  endloop
endfacet
facet normal 1.4271160643590214e-14 1.0 -1.401637844374538e-14
  outer loop
    vertex 2198.342686726394 541.3647040315286 3.0000000000002354
    vertex 2189.342686726388 541.3647040315288 17.00000000000445
    vertex 2198.342686726394 541.3647040315285 16.227272727273853
  endloop
endfacet
facet normal 1.4271160643590214e-14 1.0 -1.401637844374538e-14
  outer loop
    vertex 2198.342686726394 541.3647040315285 16.227272727273853
    vertex 2189.342686726388 541.3647040315288 17.00000000000445
    vertex 2193.342686726393 541.3647040315288 21.000000000002533
  endloop
endfacet
facet normal -0.6087614290076228 0.7933533402920776 4.2454327999335544e-18
  outer loop
    vertex 2204.05479460715 512.2253898266374 7.000000000000375
    vertex 2204.05479460715 512.2253898266374 1.0000000000003761
    vertex 2203.847687825963 512.0664712040394 7.000000000000375
  endloop
endfacet
facet normal 0.6087614290069702 0.7933533402925785 -4.245432799936238e-18
  outer loop
    vertex 2211.5547946071492 537.2253898266374 7.000000000000377
    vertex 2211.7619013883364 537.0664712040398 1.0000000000003795
    vertex 2211.5547946071492 537.2253898266374 1.0000000000003795
  endloop
endfacet
facet normal -0.13052619222379047 0.9914448613733183 0.0
  outer loop
    vertex 2210.7959755620464 537.325290249141 7.000000000000377
    vertex 2211.0547946071497 537.359364422853 1.0000000000003795
    vertex 2210.7959755620464 537.325290249141 1.0000000000003795
  endloop
endfacet
facet normal 0.6726727939963069 -3.7886574090059303e-14 0.7399400733959489
  outer loop
    vertex 2215.3426867263925 497.3647040315287 1.0000000000024571
    vertex 2193.342686726393 499.3647040315293 21.000000000001968
    vertex 2193.342686726392 497.36470403152845 21.000000000002444
  endloop
endfacet
facet normal 0.6726727939963069 -3.7886574090059303e-14 0.7399400733959489
  outer loop
    vertex 2193.342686726393 499.3647040315293 21.000000000001968
    vertex 2215.3426867263925 497.3647040315287 1.0000000000024571
    vertex 2215.3426867263925 499.3647040315287 1.0000000000024798
  endloop
endfacet
facet normal 0.3826834323618464 -0.9238795325126302 1.822817896856335e-18
  outer loop
    vertex 2211.313613652252 535.3934385965644 7.000000000000377
    vertex 2211.313613652252 535.3934385965644 1.0000000000003795
    vertex 2211.5547946071506 535.4933390190685 7.000000000000377
  endloop
endfacet
facet normal 1.3833418466973599e-14 1.0 -8.766526819185566e-15
  outer loop
    vertex 2192.342686726393 499.3647040315291 17.000000000002178
    vertex 2215.3426867263925 499.3647040315287 1.0000000000024798
    vertex 2192.342686726393 499.3647040315291 1.0000000000010134
  endloop
endfacet
facet normal 1.3833418466973599e-14 1.0 -8.766526819185566e-15
  outer loop
    vertex 2215.3426867263925 499.3647040315287 1.0000000000024798
    vertex 2192.342686726393 499.3647040315291 17.000000000002178
    vertex 2193.3426867263925 499.3647040315291 17.000000000002334
  endloop
endfacet
facet normal 1.3833418466973599e-14 1.0 -8.766526819185566e-15
  outer loop
    vertex 2215.3426867263925 499.3647040315287 1.0000000000024798
    vertex 2193.3426867263925 499.3647040315291 17.000000000002334
    vertex 2193.342686726393 499.3647040315293 21.000000000001968
  endloop
endfacet
facet normal -9.714451465470117e-17 1.6587218603155192e-14 -1.0
  outer loop
    vertex 2192.3426867263934 539.3647040315286 17.000000000002604
    vertex 2193.3426867263925 499.3647040315291 17.000000000002334
    vertex 2192.342686726393 499.3647040315291 17.000000000002178
  endloop
endfacet
facet normal -9.714451465470117e-17 1.6587218603155192e-14 -1.0
  outer loop
    vertex 2193.3426867263925 499.3647040315291 17.000000000002334
    vertex 2192.3426867263934 539.3647040315286 17.000000000002604
    vertex 2193.342686726394 539.3647040315286 17.00000000000319
  endloop
endfacet
facet normal 0.6904757466825309 -1.4266210283002063e-14 0.7233555441435433
  outer loop
    vertex 2198.342686726394 539.3647040315285 16.22727272727384
    vertex 2193.342686726393 541.3647040315288 21.000000000002533
    vertex 2193.342686726393 539.3647040315285 21.000000000002466
  endloop
endfacet
facet normal 0.6904757466825309 -1.4266210283002063e-14 0.7233555441435433
  outer loop
    vertex 2193.342686726393 541.3647040315288 21.000000000002533
    vertex 2198.342686726394 539.3647040315285 16.22727272727384
    vertex 2198.342686726394 541.3647040315285 16.227272727273853
  endloop
endfacet
facet normal 0.7933533402911263 -0.6087614290088625 -2.1227163999586833e-18
  outer loop
    vertex 2205.420820010935 510.85936442285345 7.000000000000375
    vertex 2205.2619013883364 510.6522576416659 7.000000000000375
    vertex 2205.420820010935 510.85936442285345 1.0000000000003761
  endloop
endfacet
facet normal 0.3826834323618464 -0.9238795325126302 1.822817896856335e-18
  outer loop
    vertex 2211.5547946071506 535.4933390190685 7.000000000000377
    vertex 2211.313613652252 535.3934385965644 1.0000000000003795
    vertex 2211.5547946071506 535.4933390190685 1.0000000000003795
  endloop
endfacet
facet normal -0.3826834323588033 -0.9238795325138908 -1.822817896847908e-18
  outer loop
    vertex 2204.0547946071497 510.49333901906857 7.000000000000375
    vertex 2204.0547946071497 510.49333901906857 1.0000000000003761
    vertex 2204.295975562049 510.3934385965651 7.000000000000375
  endloop
endfacet
facet normal -0.13052619222041073 -0.9914448613737632 8.492979347751148e-19
  outer loop
    vertex 2210.7959755620477 535.3934385965644 7.000000000000377
    vertex 2210.7959755620477 535.3934385965644 1.0000000000003795
    vertex 2211.0547946071497 535.3593644228533 7.000000000000377
  endloop
endfacet
facet normal 0.0 0.0 1.0
  outer loop
    vertex 2203.5888687808606 511.61818346795604 7.000000000000375
    vertex 2203.554794607151 511.35936442285396 7.000000000000375
    vertex 2203.5888687808606 511.10054537775034 7.000000000000375
  endloop
endfacet
facet normal 1.0 -1.353583911623094e-14 4.511946372076672e-14
  outer loop
    vertex 2193.342686726394 539.3647040315286 17.00000000000319
    vertex 2193.342686726393 499.3647040315293 21.000000000001968
    vertex 2193.3426867263925 499.3647040315291 17.000000000002334
  endloop
endfacet
facet normal 1.0 -1.353583911623094e-14 4.511946372076672e-14
  outer loop
    vertex 2193.342686726393 499.3647040315293 21.000000000001968
    vertex 2193.342686726394 539.3647040315286 17.00000000000319
    vertex 2193.342686726393 539.3647040315285 21.000000000002466
  endloop
endfacet
facet normal 0.13052619222307477 -0.9914448613734126 -4.2464896738030016e-19
  outer loop
    vertex 2204.5547946071483 510.3593644228528 7.000000000000375
    vertex 2204.5547946071483 510.3593644228528 1.0000000000003761
    vertex 2204.813613652253 510.3934385965648 7.000000000000375
  endloop
endfacet
facet normal 0.0 0.0 1.0
  outer loop
    vertex 2204.295975562049 510.3934385965651 7.000000000000375
    vertex 2204.05479460715 512.2253898266374 7.000000000000375
    vertex 2204.0547946071497 510.49333901906857 7.000000000000375
  endloop
endfacet
facet normal 1.0 -1.4093004406698475e-14 6.279580568205816e-13
  outer loop
    vertex 2215.342686726394 541.364704031528 -0.9999999999999999
    vertex 2215.3426867263925 497.3647040315287 1.0000000000024571
    vertex 2215.342686726394 497.3647040315285 -0.9999999999983079
  endloop
endfacet
facet normal 1.0 -1.4093004406698475e-14 6.279580568205816e-13
  outer loop
    vertex 2215.3426867263925 497.3647040315287 1.0000000000024571
    vertex 2215.342686726394 541.364704031528 -0.9999999999999999
    vertex 2215.3426867263925 499.3647040315287 1.0000000000024798
  endloop
endfacet
facet normal 1.0 -1.4093004406698475e-14 6.279580568205816e-13
  outer loop
    vertex 2215.3426867263925 499.3647040315287 1.0000000000024798
    vertex 2215.342686726394 541.364704031528 -0.9999999999999999
    vertex 2215.342686726394 539.3647040315286 1.0000000000002454
  endloop
endfacet
facet normal 1.0 -1.4093004406698475e-14 6.279580568205816e-13
  outer loop
    vertex 2215.342686726394 539.3647040315286 1.0000000000002454
    vertex 2215.342686726394 541.364704031528 -0.9999999999999999
    vertex 2215.342686726394 539.3647040315286 3.000000000000245
  endloop
endfacet
facet normal 1.0 -1.4093004406698475e-14 6.279580568205816e-13
  outer loop
    vertex 2215.342686726394 539.3647040315286 3.000000000000245
    vertex 2215.342686726394 541.364704031528 -0.9999999999999999
    vertex 2215.342686726394 541.3647040315283 3.0000000000001563
  endloop
endfacet
facet normal -0.7933533402908237 0.6087614290092568 4.245432799982339e-18
  outer loop
    vertex 2196.347687825964 537.0664712040393 7.000000000000377
    vertex 2196.188769203366 536.8593644228534 1.0000000000003775
    vertex 2196.188769203366 536.8593644228534 7.000000000000377
  endloop
endfacet
facet normal -1.0 -3.6915924862445987e-14 -1.30345117415547e-13
  outer loop
    vertex 2189.342686726388 541.3647040315288 17.00000000000445
    vertex 2189.342686726392 497.36470403152885 -0.9999999999979244
    vertex 2189.3426867263925 497.3647040315282 17.000000000002466
  endloop
endfacet
facet normal -1.0 -3.6915924862445987e-14 -1.30345117415547e-13
  outer loop
    vertex 2189.342686726392 497.36470403152885 -0.9999999999979244
    vertex 2189.342686726388 541.3647040315288 17.00000000000445
    vertex 2189.342686726393 541.3647040315284 -0.9999999999999999
  endloop
endfacet
facet normal 1.0 -2.2559731860383375e-14 1.1279865930190768e-14
  outer loop
    vertex 2192.342686726394 539.3647040315286 1.0000000000002238
    vertex 2192.342686726393 499.3647040315291 17.000000000002178
    vertex 2192.342686726393 499.3647040315291 1.0000000000010134
  endloop
endfacet
facet normal 1.0 -2.2559731860383375e-14 1.1279865930190768e-14
  outer loop
    vertex 2192.342686726393 499.3647040315291 17.000000000002178
    vertex 2192.342686726394 539.3647040315286 1.0000000000002238
    vertex 2192.3426867263934 539.3647040315286 17.000000000002604
  endloop
endfacet
facet normal -9.714451465470117e-17 -4.904109226341469e-14 -1.0
  outer loop
    vertex 2189.342686726393 541.3647040315284 -0.9999999999999999
    vertex 2215.342686726394 497.3647040315285 -0.9999999999983079
    vertex 2189.342686726392 497.36470403152885 -0.9999999999979244
  endloop
endfacet
facet normal -9.714451465470117e-17 -4.904109226341469e-14 -1.0
  outer loop
    vertex 2215.342686726394 497.3647040315285 -0.9999999999983079
    vertex 2189.342686726393 541.3647040315284 -0.9999999999999999
    vertex 2215.342686726394 541.364704031528 -0.9999999999999999
  endloop
endfacet
facet normal -0.6087614290087409 -0.7933533402912198 2.1227163999792815e-18
  outer loop
    vertex 2210.5547946071506 535.4933390190697 7.000000000000377
    vertex 2210.347687825964 535.6522576416676 1.0000000000003795
    vertex 2210.5547946071506 535.4933390190697 1.0000000000003795
  endloop
endfacet
facet normal -0.7933533402908238 0.6087614290092568 6.368149199973506e-18
  outer loop
    vertex 2196.347687825964 537.0664712040393 1.0000000000003775
    vertex 2196.188769203366 536.8593644228534 1.0000000000003775
    vertex 2196.347687825964 537.0664712040393 7.000000000000377
  endloop
endfacet
facet normal 0.6087614290076832 -0.7933533402920315 2.1227163999962493e-18
  outer loop
    vertex 2205.2619013883364 510.6522576416659 7.000000000000375
    vertex 2205.0547946071506 510.493339019069 1.0000000000003761
    vertex 2205.2619013883364 510.6522576416659 1.0000000000003761
  endloop
endfacet
facet normal 0.9914448613733936 0.13052619222321846 -8.492979347759822e-19
  outer loop
    vertex 2198.020720433439 536.6181834679558 1.0000000000003781
    vertex 2198.05479460715 536.3593644228536 7.000000000000377
    vertex 2198.05479460715 536.3593644228536 1.0000000000003781
  endloop
endfacet
facet normal -6.4160314953112506e-15 -1.0 -3.818536201201208e-15
  outer loop
    vertex 2198.342686726394 539.3647040315286 3.000000000000224
    vertex 2192.342686726394 539.3647040315286 1.0000000000002238
    vertex 2198.342686726394 539.3647040315286 1.0000000000002238
  endloop
endfacet
facet normal -6.4160314953112506e-15 -1.0 -3.818536201201208e-15
  outer loop
    vertex 2192.342686726394 539.3647040315286 1.0000000000002238
    vertex 2198.342686726394 539.3647040315286 3.000000000000224
    vertex 2192.3426867263934 539.3647040315286 17.000000000002604
  endloop
endfacet
facet normal -6.4160314953112506e-15 -1.0 -3.818536201201208e-15
  outer loop
    vertex 2192.3426867263934 539.3647040315286 17.000000000002604
    vertex 2198.342686726394 539.3647040315286 3.000000000000224
    vertex 2198.342686726394 539.3647040315285 16.22727272727384
  endloop
endfacet
facet normal -6.4160314953112506e-15 -1.0 -3.818536201201208e-15
  outer loop
    vertex 2192.3426867263934 539.3647040315286 17.000000000002604
    vertex 2198.342686726394 539.3647040315285 16.22727272727384
    vertex 2193.342686726394 539.3647040315286 17.00000000000319
  endloop
endfacet
facet normal -6.4160314953112506e-15 -1.0 -3.818536201201208e-15
  outer loop
    vertex 2193.342686726394 539.3647040315286 17.00000000000319
    vertex 2198.342686726394 539.3647040315285 16.22727272727384
    vertex 2193.342686726393 539.3647040315285 21.000000000002466
  endloop
endfacet
facet normal 0.0 0.0 1.0
  outer loop
    vertex 2196.7959755620477 537.3252902491419 7.000000000000377
    vertex 2196.5547946071497 537.2253898266371 7.000000000000377
    vertex 2196.55479460715 535.4933390190683 7.000000000000377
  endloop
endfacet
facet normal -0.9238795325103241 0.382683432367414 1.8228178968777025e-18
  outer loop
    vertex 2210.188769203366 536.859364422853 7.000000000000377
    vertex 2210.0888687808606 536.6181834679561 1.0000000000003795
    vertex 2210.0888687808606 536.6181834679561 7.000000000000377
  endloop
endfacet
facet normal -0.38268343236793256 -0.9238795325101093 -1.822817896873186e-18
  outer loop
    vertex 2210.5547946071506 535.4933390190697 7.000000000000377
    vertex 2210.5547946071506 535.4933390190697 1.0000000000003795
    vertex 2210.7959755620477 535.3934385965644 7.000000000000377
  endloop
endfacet
facet normal 0.0 0.0 1.0
  outer loop
    vertex 2197.0547946071506 535.3593644228533 7.000000000000377
    vertex 2197.0547946071497 537.3593644228532 7.000000000000377
    vertex 2196.7959755620477 537.3252902491419 7.000000000000377
  endloop
endfacet
facet normal 0.0 0.0 1.0
  outer loop
    vertex 2205.2619013883364 512.06647120404 7.000000000000375
    vertex 2205.0547946071506 510.493339019069 7.000000000000375
    vertex 2205.2619013883364 510.6522576416659 7.000000000000375
  endloop
endfacet
facet normal -0.9238795325103242 0.38268343236741414 0.0
  outer loop
    vertex 2210.188769203366 536.859364422853 1.0000000000003795
    vertex 2210.0888687808606 536.6181834679561 1.0000000000003795
    vertex 2210.188769203366 536.859364422853 7.000000000000377
  endloop
endfacet
facet normal -0.1305261922265991 -0.9914448613729484 -4.246489673966834e-19
  outer loop
    vertex 2204.5547946071483 510.3593644228528 7.000000000000375
    vertex 2204.295975562049 510.3934385965651 1.0000000000003761
    vertex 2204.5547946071483 510.3593644228528 1.0000000000003761
  endloop
endfacet
facet normal -0.3826834323636079 -0.9238795325119006 -3.645635793742525e-18
  outer loop
    vertex 2196.55479460715 535.4933390190683 7.000000000000377
    vertex 2196.55479460715 535.4933390190683 1.0000000000003775
    vertex 2196.7959755620477 535.3934385965642 7.000000000000377
  endloop
endfacet
facet normal 0.0 0.0 1.0
  outer loop
    vertex 2204.05479460715 512.2253898266374 7.000000000000375
    vertex 2203.847687825963 510.6522576416667 7.000000000000375
    vertex 2204.0547946071497 510.49333901906857 7.000000000000375
  endloop
endfacet
facet normal 0.0 0.0 1.0
  outer loop
    vertex 2197.3136136522535 537.3252902491424 7.000000000000377
    vertex 2197.0547946071497 537.3593644228532 7.000000000000377
    vertex 2197.0547946071506 535.3593644228533 7.000000000000377
  endloop
endfacet
facet normal 0.0 0.0 1.0
  outer loop
    vertex 2203.688769203366 510.8593644228535 7.000000000000375
    vertex 2203.5888687808606 511.61818346795604 7.000000000000375
    vertex 2203.5888687808606 511.10054537775034 7.000000000000375
  endloop
endfacet
facet normal 0.608761429010279 -0.7933533402900397 0.0
  outer loop
    vertex 2197.761901388337 535.6522576416672 7.000000000000377
    vertex 2197.5547946071506 535.493339019069 1.0000000000003775
    vertex 2197.761901388337 535.6522576416672 1.0000000000003775
  endloop
endfacet
facet normal 0.0 0.0 1.0
  outer loop
    vertex 2205.0547946071497 512.2253898266373 7.000000000000375
    vertex 2204.813613652252 512.3252902491419 7.000000000000375
    vertex 2204.813613652253 510.3934385965648 7.000000000000375
  endloop
endfacet
facet normal 0.0 0.0 1.0
  outer loop
    vertex 2205.420820010935 510.85936442285345 7.000000000000375
    vertex 2205.2619013883364 512.06647120404 7.000000000000375
    vertex 2205.2619013883364 510.6522576416659 7.000000000000375
  endloop
endfacet
facet normal 0.9238795325109649 0.38268343236586727 0.0
  outer loop
    vertex 2205.4208200109338 511.85936442285276 7.000000000000375
    vertex 2205.520720433439 511.6181834679556 7.000000000000375
    vertex 2205.4208200109338 511.85936442285276 1.0000000000003761
  endloop
endfacet
facet normal 0.0 0.0 1.0
  outer loop
    vertex 2198.05479460715 536.3593644228536 7.000000000000377
    vertex 2198.020720433439 536.6181834679558 7.000000000000377
    vertex 2198.020720433439 536.1005453777503 7.000000000000377
  endloop
endfacet
facet normal 0.793353340288976 0.608761429011665 -4.2454327999872486e-18
  outer loop
    vertex 2197.761901388337 537.0664712040394 1.0000000000003781
    vertex 2197.920820010935 536.8593644228539 7.000000000000377
    vertex 2197.920820010935 536.8593644228539 1.0000000000003781
  endloop
endfacet
facet normal -0.9914448613742824 0.1305261922164675 0.0
  outer loop
    vertex 2203.5888687808606 511.61818346795604 1.0000000000003761
    vertex 2203.554794607151 511.35936442285396 1.0000000000003761
    vertex 2203.5888687808606 511.61818346795604 7.000000000000375
  endloop
endfacet
facet normal 0.13052619222193065 0.991444861373563 0.0
  outer loop
    vertex 2211.313613652252 537.3252902491415 7.000000000000377
    vertex 2211.313613652252 537.3252902491415 1.0000000000003795
    vertex 2211.0547946071497 537.359364422853 7.000000000000377
  endloop
endfacet
facet normal -0.38268343236793273 -0.9238795325101093 -1.822817896873186e-18
  outer loop
    vertex 2210.7959755620477 535.3934385965644 7.000000000000377
    vertex 2210.5547946071506 535.4933390190697 1.0000000000003795
    vertex 2210.7959755620477 535.3934385965644 1.0000000000003795
  endloop
endfacet
facet normal -0.9238795325113192 0.3826834323650116 3.645635793732045e-18
  outer loop
    vertex 2203.6887692033656 511.85936442285384 1.0000000000003761
    vertex 2203.5888687808606 511.61818346795604 1.0000000000003761
    vertex 2203.6887692033656 511.85936442285384 7.000000000000375
  endloop
endfacet
facet normal 0.9914448613733936 0.13052619222321848 8.492979347759822e-19
  outer loop
    vertex 2198.020720433439 536.6181834679558 7.000000000000377
    vertex 2198.05479460715 536.3593644228536 7.000000000000377
    vertex 2198.020720433439 536.6181834679558 1.0000000000003781
  endloop
endfacet
facet normal 0.0 0.0 1.0
  outer loop
    vertex 2204.55479460715 512.3593644228533 7.000000000000375
    vertex 2204.295975562049 510.3934385965651 7.000000000000375
    vertex 2204.5547946071483 510.3593644228528 7.000000000000375
  endloop
endfacet
facet normal -0.9238795325112179 -0.3826834323652562 -1.8228178968685512e-18
  outer loop
    vertex 2196.0888687808606 536.1005453777503 1.0000000000003775
    vertex 2196.1887692033656 535.8593644228527 1.0000000000003775
    vertex 2196.0888687808606 536.1005453777503 7.000000000000377
  endloop
endfacet
facet normal 0.13052619222307477 -0.9914448613734126 0.0
  outer loop
    vertex 2204.813613652253 510.3934385965648 7.000000000000375
    vertex 2204.5547946071483 510.3593644228528 1.0000000000003761
    vertex 2204.813613652253 510.3934385965648 1.0000000000003761
  endloop
endfacet
facet normal 0.9914448613742294 -0.13052619221687012 -4.2464896739131036e-19
  outer loop
    vertex 2212.054794607149 536.359364422852 7.000000000000377
    vertex 2212.020720433439 536.1005453777507 7.000000000000377
    vertex 2212.054794607149 536.359364422852 1.0000000000003795
  endloop
endfacet
facet normal -0.1305261922265992 -0.9914448613729484 1.2739469021900514e-18
  outer loop
    vertex 2204.295975562049 510.3934385965651 7.000000000000375
    vertex 2204.295975562049 510.3934385965651 1.0000000000003761
    vertex 2204.5547946071483 510.3593644228528 7.000000000000375
  endloop
endfacet
facet normal 0.7933533402911074 -0.6087614290088873 2.122716399997478e-18
  outer loop
    vertex 2197.920820010934 535.8593644228529 7.000000000000377
    vertex 2197.761901388337 535.6522576416672 7.000000000000377
    vertex 2197.920820010934 535.8593644228529 1.0000000000003781
  endloop
endfacet
facet normal 0.7933533402911074 -0.6087614290088873 0.0
  outer loop
    vertex 2197.920820010934 535.8593644228529 1.0000000000003781
    vertex 2197.761901388337 535.6522576416672 7.000000000000377
    vertex 2197.761901388337 535.6522576416672 1.0000000000003775
  endloop
endfacet
facet normal -0.13052619222379044 0.9914448613733183 1.2739469021549937e-18
  outer loop
    vertex 2211.0547946071497 537.359364422853 7.000000000000377
    vertex 2211.0547946071497 537.359364422853 1.0000000000003795
    vertex 2210.7959755620464 537.325290249141 7.000000000000377
  endloop
endfacet
facet normal -0.6087614290087258 -0.7933533402912314 0.0
  outer loop
    vertex 2203.847687825963 510.6522576416667 7.000000000000375
    vertex 2203.847687825963 510.6522576416667 1.0000000000003761
    vertex 2204.0547946071497 510.49333901906857 7.000000000000375
  endloop
endfacet
facet normal 0.7933533402927455 0.6087614290067527 0.0
  outer loop
    vertex 2205.2619013883364 512.06647120404 1.0000000000003761
    vertex 2205.4208200109338 511.85936442285276 7.000000000000375
    vertex 2205.4208200109338 511.85936442285276 1.0000000000003761
  endloop
endfacet
facet normal 0.0 0.0 1.0
  outer loop
    vertex 2204.295975562049 510.3934385965651 7.000000000000375
    vertex 2204.2959755620473 512.3252902491419 7.000000000000375
    vertex 2204.05479460715 512.2253898266374 7.000000000000375
  endloop
endfacet
facet normal 0.6087614290069701 0.7933533402925784 -2.122716399968119e-18
  outer loop
    vertex 2211.7619013883364 537.0664712040398 7.000000000000377
    vertex 2211.7619013883364 537.0664712040398 1.0000000000003795
    vertex 2211.5547946071492 537.2253898266374 7.000000000000377
  endloop
endfacet
facet normal 0.6087614290076229 0.7933533402920776 -2.1227163999667772e-18
  outer loop
    vertex 2197.761901388337 537.0664712040394 7.000000000000377
    vertex 2197.761901388337 537.0664712040394 1.0000000000003781
    vertex 2197.5547946071492 537.2253898266374 7.000000000000377
  endloop
endfacet
facet normal 0.0 0.0 1.0
  outer loop
    vertex 2196.55479460715 535.4933390190683 7.000000000000377
    vertex 2196.347687825964 537.0664712040393 7.000000000000377
    vertex 2196.3476878259635 535.652257641666 7.000000000000377
  endloop
endfacet
facet normal -0.1305261922222705 0.9914448613735183 -1.6985958695450712e-18
  outer loop
    vertex 2204.55479460715 512.3593644228533 7.000000000000375
    vertex 2204.55479460715 512.3593644228533 1.0000000000003761
    vertex 2204.2959755620473 512.3252902491419 7.000000000000375
  endloop
endfacet
facet normal 0.6087614290114121 -0.7933533402891702 2.122716400003394e-18
  outer loop
    vertex 2211.5547946071506 535.4933390190685 7.000000000000377
    vertex 2211.5547946071506 535.4933390190685 1.0000000000003795
    vertex 2211.7619013883354 535.6522576416663 7.000000000000377
  endloop
endfacet
facet normal -0.6087614290087409 -0.7933533402912198 2.122716399979282e-18
  outer loop
    vertex 2210.347687825964 535.6522576416676 7.000000000000377
    vertex 2210.347687825964 535.6522576416676 1.0000000000003795
    vertex 2210.5547946071506 535.4933390190697 7.000000000000377
  endloop
endfacet
facet normal 0.0 0.0 1.0
  outer loop
    vertex 2204.55479460715 512.3593644228533 7.000000000000375
    vertex 2204.2959755620473 512.3252902491419 7.000000000000375
    vertex 2204.295975562049 510.3934385965651 7.000000000000375
  endloop
endfacet
facet normal -0.1305261922204107 -0.9914448613737632 1.2739469021626718e-18
  outer loop
    vertex 2211.0547946071497 535.3593644228533 7.000000000000377
    vertex 2210.7959755620477 535.3934385965644 1.0000000000003795
    vertex 2211.0547946071497 535.3593644228533 1.0000000000003795
  endloop
endfacet
facet normal -0.9238795325097845 -0.3826834323687165 0.0
  outer loop
    vertex 2203.5888687808606 511.10054537775034 1.0000000000003761
    vertex 2203.688769203366 510.8593644228535 1.0000000000003761
    vertex 2203.5888687808606 511.10054537775034 7.000000000000375
  endloop
endfacet
facet normal 0.0 0.0 1.0
  outer loop
    vertex 2204.813613652253 510.3934385965648 7.000000000000375
    vertex 2204.813613652252 512.3252902491419 7.000000000000375
    vertex 2204.55479460715 512.3593644228533 7.000000000000375
  endloop
endfacet
facet normal 0.9914448613742294 -0.1305261922168701 -1.2739469021739307e-18
  outer loop
    vertex 2212.054794607149 536.359364422852 1.0000000000003795
    vertex 2212.020720433439 536.1005453777507 7.000000000000377
    vertex 2212.020720433439 536.1005453777507 1.0000000000003795
  endloop
endfacet
facet normal 0.0 0.0 1.0
  outer loop
    vertex 2203.847687825963 512.0664712040394 7.000000000000375
    vertex 2203.688769203366 510.8593644228535 7.000000000000375
    vertex 2203.847687825963 510.6522576416667 7.000000000000375
  endloop
endfacet
facet normal 0.0 0.0 1.0
  outer loop
    vertex 2196.1887692033656 535.8593644228527 7.000000000000377
    vertex 2196.0888687808606 536.6181834679561 7.000000000000377
    vertex 2196.0888687808606 536.1005453777503 7.000000000000377
  endloop
endfacet
facet normal 0.13052619222262835 0.9914448613734713 8.492979347772329e-19
  outer loop
    vertex 2204.813613652252 512.3252902491419 7.000000000000375
    vertex 2204.813613652252 512.3252902491419 1.0000000000003761
    vertex 2204.55479460715 512.3593644228533 7.000000000000375
  endloop
endfacet
facet normal 0.6087614290076229 0.7933533402920776 -2.122716399966778e-18
  outer loop
    vertex 2197.5547946071492 537.2253898266374 7.000000000000377
    vertex 2197.761901388337 537.0664712040394 1.0000000000003781
    vertex 2197.5547946071492 537.2253898266374 1.0000000000003781
  endloop
endfacet
facet normal -0.3826834323588034 -0.9238795325138909 -1.8228178968479087e-18
  outer loop
    vertex 2204.295975562049 510.3934385965651 7.000000000000375
    vertex 2204.0547946071497 510.49333901906857 1.0000000000003761
    vertex 2204.295975562049 510.3934385965651 1.0000000000003761
  endloop
endfacet
facet normal 0.13052619222193068 0.991444861373563 0.0
  outer loop
    vertex 2211.0547946071497 537.359364422853 7.000000000000377
    vertex 2211.313613652252 537.3252902491415 1.0000000000003795
    vertex 2211.0547946071497 537.359364422853 1.0000000000003795
  endloop
endfacet
facet normal 0.0 0.0 1.0
  outer loop
    vertex 2204.05479460715 512.2253898266374 7.000000000000375
    vertex 2203.847687825963 512.0664712040394 7.000000000000375
    vertex 2203.847687825963 510.6522576416667 7.000000000000375
  endloop
endfacet
facet normal 0.608761429011412 -0.79335334028917 0.0
  outer loop
    vertex 2211.7619013883354 535.6522576416663 7.000000000000377
    vertex 2211.5547946071506 535.4933390190685 1.0000000000003795
    vertex 2211.7619013883354 535.6522576416663 1.0000000000003795
  endloop
endfacet
facet normal 0.0 0.0 1.0
  outer loop
    vertex 2196.0888687808606 536.6181834679561 7.000000000000377
    vertex 2196.0547946071506 536.3593644228529 7.000000000000377
    vertex 2196.0888687808606 536.1005453777503 7.000000000000377
  endloop
endfacet
facet normal 0.9238795325129883 0.3826834323609823 -1.822817896863861e-18
  outer loop
    vertex 2197.920820010935 536.8593644228539 1.0000000000003781
    vertex 2198.020720433439 536.6181834679558 7.000000000000377
    vertex 2198.020720433439 536.6181834679558 1.0000000000003781
  endloop
endfacet
facet normal -0.9914448613736195 0.13052619222150139 8.492979347714381e-19
  outer loop
    vertex 2210.0888687808606 536.6181834679561 7.000000000000377
    vertex 2210.0547946071492 536.3593644228532 1.0000000000003795
    vertex 2210.0547946071492 536.3593644228532 7.000000000000377
  endloop
endfacet
facet normal -0.991444861373596 -0.1305261922216804 4.2464896738689363e-19
  outer loop
    vertex 2210.0547946071492 536.3593644228532 7.000000000000377
    vertex 2210.0888687808606 536.1005453777507 1.0000000000003795
    vertex 2210.0888687808606 536.1005453777507 7.000000000000377
  endloop
endfacet
facet normal 0.7933533402927453 0.6087614290067525 0.0
  outer loop
    vertex 2205.2619013883364 512.06647120404 7.000000000000375
    vertex 2205.4208200109338 511.85936442285276 7.000000000000375
    vertex 2205.2619013883364 512.06647120404 1.0000000000003761
  endloop
endfacet
facet normal 0.7933533402911266 -0.6087614290088624 2.1227163999586818e-18
  outer loop
    vertex 2205.420820010935 510.85936442285345 1.0000000000003761
    vertex 2205.2619013883364 510.6522576416659 7.000000000000375
    vertex 2205.2619013883364 510.6522576416659 1.0000000000003761
  endloop
endfacet
facet normal -0.991444861373596 -0.13052619222168038 -4.2464896738689343e-19
  outer loop
    vertex 2210.0547946071492 536.3593644228532 1.0000000000003795
    vertex 2210.0888687808606 536.1005453777507 1.0000000000003795
    vertex 2210.0547946071492 536.3593644228532 7.000000000000377
  endloop
endfacet
facet normal 0.793353340288976 0.6087614290116651 -2.1227163999936247e-18
  outer loop
    vertex 2197.761901388337 537.0664712040394 7.000000000000377
    vertex 2197.920820010935 536.8593644228539 7.000000000000377
    vertex 2197.761901388337 537.0664712040394 1.0000000000003781
  endloop
endfacet
facet normal -0.6087614290087259 -0.7933533402912314 0.0
  outer loop
    vertex 2204.0547946071497 510.49333901906857 7.000000000000375
    vertex 2203.847687825963 510.6522576416667 1.0000000000003761
    vertex 2204.0547946071497 510.49333901906857 1.0000000000003761
  endloop
endfacet
facet normal -0.9238795325113192 0.38268343236501157 1.822817896866023e-18
  outer loop
    vertex 2203.6887692033656 511.85936442285384 7.000000000000375
    vertex 2203.5888687808606 511.61818346795604 1.0000000000003761
    vertex 2203.5888687808606 511.61818346795604 7.000000000000375
  endloop
endfacet
facet normal 0.0 0.0 1.0
  outer loop
    vertex 2203.847687825963 512.0664712040394 7.000000000000375
    vertex 2203.6887692033656 511.85936442285384 7.000000000000375
    vertex 2203.688769203366 510.8593644228535 7.000000000000375
  endloop
endfacet
facet normal 0.0 0.0 1.0
  outer loop
    vertex 2205.2619013883364 512.06647120404 7.000000000000375
    vertex 2205.0547946071497 512.2253898266373 7.000000000000375
    vertex 2205.0547946071506 510.493339019069 7.000000000000375
  endloop
endfacet
facet normal 0.0 0.0 1.0
  outer loop
    vertex 2205.5547946071492 511.3593644228531 7.000000000000375
    vertex 2205.520720433439 511.6181834679556 7.000000000000375
    vertex 2205.5207204334392 511.10054537775113 7.000000000000375
  endloop
endfacet
facet normal -0.38268343236468705 0.9238795325114537 1.8228178968758366e-18
  outer loop
    vertex 2204.05479460715 512.2253898266374 7.000000000000375
    vertex 2204.2959755620473 512.3252902491419 1.0000000000003761
    vertex 2204.05479460715 512.2253898266374 1.0000000000003761
  endloop
endfacet
facet normal 0.0 0.0 1.0
  outer loop
    vertex 2204.813613652253 510.3934385965648 7.000000000000375
    vertex 2204.55479460715 512.3593644228533 7.000000000000375
    vertex 2204.5547946071483 510.3593644228528 7.000000000000375
  endloop
endfacet
facet normal 0.0 0.0 1.0
  outer loop
    vertex 2196.3476878259635 535.652257641666 7.000000000000377
    vertex 2196.188769203366 536.8593644228534 7.000000000000377
    vertex 2196.1887692033656 535.8593644228527 7.000000000000377
  endloop
endfacet
facet normal -0.13052619222227047 0.9914448613735183 -4.246489673862676e-19
  outer loop
    vertex 2204.2959755620473 512.3252902491419 7.000000000000375
    vertex 2204.55479460715 512.3593644228533 1.0000000000003761
    vertex 2204.2959755620473 512.3252902491419 1.0000000000003761
  endloop
endfacet
facet normal -0.6087614290124547 0.7933533402883701 0.0
  outer loop
    vertex 2210.347687825964 537.0664712040391 7.000000000000377
    vertex 2210.55479460715 537.2253898266382 1.0000000000003795
    vertex 2210.347687825964 537.0664712040391 1.0000000000003795
  endloop
endfacet
facet normal 0.0 0.0 1.0
  outer loop
    vertex 2196.188769203366 536.8593644228534 7.000000000000377
    vertex 2196.0888687808606 536.6181834679561 7.000000000000377
    vertex 2196.1887692033656 535.8593644228527 7.000000000000377
  endloop
endfacet
facet normal -0.7933533402913091 -0.6087614290086245 -2.1227163999758195e-18
  outer loop
    vertex 2196.1887692033656 535.8593644228527 7.000000000000377
    vertex 2196.3476878259635 535.652257641666 1.0000000000003775
    vertex 2196.3476878259635 535.652257641666 7.000000000000377
  endloop
endfacet
facet normal 0.0 0.0 1.0
  outer loop
    vertex 2198.020720433439 536.1005453777503 7.000000000000377
    vertex 2197.920820010935 536.8593644228539 7.000000000000377
    vertex 2197.920820010934 535.8593644228529 7.000000000000377
  endloop
endfacet
facet normal 0.0 0.0 1.0
  outer loop
    vertex 2196.347687825964 537.0664712040393 7.000000000000377
    vertex 2196.188769203366 536.8593644228534 7.000000000000377
    vertex 2196.3476878259635 535.652257641666 7.000000000000377
  endloop
endfacet
facet normal -0.9914448613741329 -0.13052619221760298 1.6985958695484928e-18
  outer loop
    vertex 2196.0547946071506 536.3593644228529 7.000000000000377
    vertex 2196.0888687808606 536.1005453777503 1.0000000000003775
    vertex 2196.0888687808606 536.1005453777503 7.000000000000377
  endloop
endfacet
facet normal 0.13052619221788944 -0.9914448613740952 0.0
  outer loop
    vertex 2197.3136136522517 535.3934385965636 7.000000000000377
    vertex 2197.0547946071506 535.3593644228533 1.0000000000003775
    vertex 2197.3136136522517 535.3934385965636 1.0000000000003775
  endloop
endfacet
facet normal -0.9914448613741801 0.13052619221724507 4.246489673847743e-19
  outer loop
    vertex 2196.0888687808606 536.6181834679561 7.000000000000377
    vertex 2196.0547946071506 536.3593644228529 1.0000000000003775
    vertex 2196.0547946071506 536.3593644228529 7.000000000000377
  endloop
endfacet
facet normal 0.0 0.0 1.0
  outer loop
    vertex 2197.761901388337 537.0664712040394 7.000000000000377
    vertex 2197.5547946071492 537.2253898266374 7.000000000000377
    vertex 2197.5547946071506 535.493339019069 7.000000000000377
  endloop
endfacet
facet normal 0.9238795325109649 0.38268343236586727 0.0
  outer loop
    vertex 2205.4208200109338 511.85936442285276 1.0000000000003761
    vertex 2205.520720433439 511.6181834679556 7.000000000000375
    vertex 2205.520720433439 511.6181834679556 1.0000000000003761
  endloop
endfacet
facet normal 0.0 0.0 1.0
  outer loop
    vertex 2205.420820010935 510.85936442285345 7.000000000000375
    vertex 2205.4208200109338 511.85936442285276 7.000000000000375
    vertex 2205.2619013883364 512.06647120404 7.000000000000375
  endloop
endfacet
facet normal 0.0 0.0 1.0
  outer loop
    vertex 2205.0547946071506 510.493339019069 7.000000000000375
    vertex 2205.0547946071497 512.2253898266373 7.000000000000375
    vertex 2204.813613652253 510.3934385965648 7.000000000000375
  endloop
endfacet
facet normal -0.382683432363608 -0.9238795325119006 -1.8228178968712626e-18
  outer loop
    vertex 2196.7959755620477 535.3934385965642 7.000000000000377
    vertex 2196.55479460715 535.4933390190683 1.0000000000003775
    vertex 2196.7959755620477 535.3934385965642 1.0000000000003775
  endloop
endfacet
facet normal 0.9238795325122463 -0.3826834323627734 1.822817896869216e-18
  outer loop
    vertex 2205.5207204334392 511.10054537775113 1.0000000000003761
    vertex 2205.420820010935 510.85936442285345 7.000000000000375
    vertex 2205.420820010935 510.85936442285345 1.0000000000003761
  endloop
endfacet
facet normal 0.0 0.0 1.0
  outer loop
    vertex 2196.55479460715 535.4933390190683 7.000000000000377
    vertex 2196.5547946071497 537.2253898266371 7.000000000000377
    vertex 2196.347687825964 537.0664712040393 7.000000000000377
  endloop
endfacet
facet normal -0.7933533402911074 0.6087614290088872 0.0
  outer loop
    vertex 2203.847687825963 512.0664712040394 1.0000000000003761
    vertex 2203.6887692033656 511.85936442285384 1.0000000000003761
    vertex 2203.847687825963 512.0664712040394 7.000000000000375
  endloop
endfacet
facet normal 0.7933533402926446 0.6087614290068839 0.0
  outer loop
    vertex 2211.7619013883364 537.0664712040398 1.0000000000003795
    vertex 2211.9208200109338 536.859364422853 7.000000000000377
    vertex 2211.9208200109338 536.859364422853 1.0000000000003795
  endloop
endfacet
facet normal -0.1305261922219488 0.9914448613735608 -4.246489673886549e-19
  outer loop
    vertex 2197.0547946071497 537.3593644228532 7.000000000000377
    vertex 2197.0547946071497 537.3593644228532 1.0000000000003781
    vertex 2196.7959755620477 537.3252902491419 7.000000000000377
  endloop
endfacet
facet normal 0.0 0.0 1.0
  outer loop
    vertex 2197.3136136522535 537.3252902491424 7.000000000000377
    vertex 2197.0547946071506 535.3593644228533 7.000000000000377
    vertex 2197.3136136522517 535.3934385965636 7.000000000000377
  endloop
endfacet
facet normal 0.0 0.0 1.0
  outer loop
    vertex 2197.0547946071506 535.3593644228533 7.000000000000377
    vertex 2196.7959755620477 537.3252902491419 7.000000000000377
    vertex 2196.7959755620477 535.3934385965642 7.000000000000377
  endloop
endfacet
facet normal 0.0 0.0 1.0
  outer loop
    vertex 2210.188769203366 535.8593644228532 7.000000000000377
    vertex 2210.0888687808606 536.6181834679561 7.000000000000377
    vertex 2210.0888687808606 536.1005453777507 7.000000000000377
  endloop
endfacet
facet normal -0.7933533402904397 -0.6087614290097576 -4.245432799991385e-18
  outer loop
    vertex 2210.188769203366 535.8593644228532 7.000000000000377
    vertex 2210.347687825964 535.6522576416676 1.0000000000003795
    vertex 2210.347687825964 535.6522576416676 7.000000000000377
  endloop
endfacet
facet normal -0.9914448613745613 -0.13052619221434794 8.492979347675067e-19
  outer loop
    vertex 2203.554794607151 511.35936442285396 7.000000000000375
    vertex 2203.5888687808606 511.10054537775034 1.0000000000003761
    vertex 2203.5888687808606 511.10054537775034 7.000000000000375
  endloop
endfacet
facet normal -0.38268343236468694 0.9238795325114537 1.8228178968758366e-18
  outer loop
    vertex 2204.2959755620473 512.3252902491419 7.000000000000375
    vertex 2204.2959755620473 512.3252902491419 1.0000000000003761
    vertex 2204.05479460715 512.2253898266374 7.000000000000375
  endloop
endfacet
facet normal 0.6087614290076832 -0.7933533402920313 4.2454327999925e-18
  outer loop
    vertex 2205.0547946071506 510.493339019069 7.000000000000375
    vertex 2205.0547946071506 510.493339019069 1.0000000000003761
    vertex 2205.2619013883364 510.6522576416659 7.000000000000375
  endloop
endfacet
facet normal 0.9238795325116055 -0.3826834323643204 -3.645635793744091e-18
  outer loop
    vertex 2198.020720433439 536.1005453777503 1.0000000000003781
    vertex 2197.920820010934 535.8593644228529 7.000000000000377
    vertex 2197.920820010934 535.8593644228529 1.0000000000003781
  endloop
endfacet
facet normal 0.13052619221788941 -0.9914448613740952 0.0
  outer loop
    vertex 2197.0547946071506 535.3593644228533 7.000000000000377
    vertex 2197.0547946071506 535.3593644228533 1.0000000000003775
    vertex 2197.3136136522517 535.3934385965636 7.000000000000377
  endloop
endfacet
facet normal -0.3826834323603537 0.9238795325132487 1.8228178968902915e-18
  outer loop
    vertex 2210.55479460715 537.2253898266382 7.000000000000377
    vertex 2210.7959755620464 537.325290249141 1.0000000000003795
    vertex 2210.55479460715 537.2253898266382 1.0000000000003795
  endloop
endfacet
facet normal 0.0 0.0 1.0
  outer loop
    vertex 2197.761901388337 535.6522576416672 7.000000000000377
    vertex 2197.761901388337 537.0664712040394 7.000000000000377
    vertex 2197.5547946071506 535.493339019069 7.000000000000377
  endloop
endfacet
facet normal 0.9238795325122463 -0.3826834323627735 0.0
  outer loop
    vertex 2205.5207204334392 511.10054537775113 7.000000000000375
    vertex 2205.420820010935 510.85936442285345 7.000000000000375
    vertex 2205.5207204334392 511.10054537775113 1.0000000000003761
  endloop
endfacet
facet normal 0.793353340291181 -0.6087614290087914 4.2454327999546565e-18
  outer loop
    vertex 2211.9208200109338 535.859364422853 1.0000000000003795
    vertex 2211.7619013883354 535.6522576416663 7.000000000000377
    vertex 2211.7619013883354 535.6522576416663 1.0000000000003795
  endloop
endfacet
facet normal 0.7933533402911808 -0.6087614290087915 0.0
  outer loop
    vertex 2211.9208200109338 535.859364422853 7.000000000000377
    vertex 2211.7619013883354 535.6522576416663 7.000000000000377
    vertex 2211.9208200109338 535.859364422853 1.0000000000003795
  endloop
endfacet
facet normal 0.0 0.0 1.0
  outer loop
    vertex 2211.0547946071497 535.3593644228533 7.000000000000377
    vertex 2211.0547946071497 537.359364422853 7.000000000000377
    vertex 2210.7959755620477 535.3934385965644 7.000000000000377
  endloop
endfacet
facet normal 0.0 0.0 1.0
  outer loop
    vertex 2203.688769203366 510.8593644228535 7.000000000000375
    vertex 2203.6887692033656 511.85936442285384 7.000000000000375
    vertex 2203.5888687808606 511.61818346795604 7.000000000000375
  endloop
endfacet
facet normal 0.13052619222262835 0.9914448613734713 -4.2464896738861628e-19
  outer loop
    vertex 2204.55479460715 512.3593644228533 7.000000000000375
    vertex 2204.813613652252 512.3252902491419 1.0000000000003761
    vertex 2204.55479460715 512.3593644228533 1.0000000000003761
  endloop
endfacet
facet normal 0.382683432363608 -0.9238795325119006 1.822817896871262e-18
  outer loop
    vertex 2205.0547946071506 510.493339019069 7.000000000000375
    vertex 2204.813613652253 510.3934385965648 1.0000000000003761
    vertex 2205.0547946071506 510.493339019069 1.0000000000003761
  endloop
endfacet
facet normal 0.0 0.0 1.0
  outer loop
    vertex 2197.5547946071506 535.493339019069 7.000000000000377
    vertex 2197.5547946071492 537.2253898266374 7.000000000000377
    vertex 2197.3136136522535 537.3252902491424 7.000000000000377
  endloop
endfacet
facet normal -0.7933533402911073 0.6087614290088873 -2.122716399997477e-18
  outer loop
    vertex 2203.847687825963 512.0664712040394 7.000000000000375
    vertex 2203.6887692033656 511.85936442285384 1.0000000000003761
    vertex 2203.6887692033656 511.85936442285384 7.000000000000375
  endloop
endfacet
facet normal 0.9914448613740975 -0.13052619221787135 4.2464896738888446e-19
  outer loop
    vertex 2205.5547946071492 511.3593644228531 1.0000000000003761
    vertex 2205.5207204334392 511.10054537775113 7.000000000000375
    vertex 2205.5207204334392 511.10054537775113 1.0000000000003761
  endloop
endfacet
facet normal -0.9914448613741329 -0.13052619221760303 2.1232448369356157e-18
  outer loop
    vertex 2196.0547946071506 536.3593644228529 1.0000000000003775
    vertex 2196.0888687808606 536.1005453777503 1.0000000000003775
    vertex 2196.0547946071506 536.3593644228529 7.000000000000377
  endloop
endfacet
facet normal 0.9914448613734643 -0.13052619222268164 4.2464896738446797e-19
  outer loop
    vertex 2198.05479460715 536.3593644228536 7.000000000000377
    vertex 2198.020720433439 536.1005453777503 7.000000000000377
    vertex 2198.05479460715 536.3593644228536 1.0000000000003781
  endloop
endfacet
facet normal -0.7933533402904397 -0.6087614290097576 -4.245432799991384e-18
  outer loop
    vertex 2210.188769203366 535.8593644228532 1.0000000000003795
    vertex 2210.347687825964 535.6522576416676 1.0000000000003795
    vertex 2210.188769203366 535.8593644228532 7.000000000000377
  endloop
endfacet
facet normal 0.9238795325098351 0.38268343236859437 1.8228178968767376e-18
  outer loop
    vertex 2211.9208200109338 536.859364422853 7.000000000000377
    vertex 2212.0207204334392 536.6181834679561 7.000000000000377
    vertex 2211.9208200109338 536.859364422853 1.0000000000003795
  endloop
endfacet
facet normal 0.0 0.0 1.0
  outer loop
    vertex 2205.5207204334392 511.10054537775113 7.000000000000375
    vertex 2205.520720433439 511.6181834679556 7.000000000000375
    vertex 2205.420820010935 510.85936442285345 7.000000000000375
  endloop
endfacet
facet normal 0.0 0.0 1.0
  outer loop
    vertex 2196.7959755620477 537.3252902491419 7.000000000000377
    vertex 2196.55479460715 535.4933390190683 7.000000000000377
    vertex 2196.7959755620477 535.3934385965642 7.000000000000377
  endloop
endfacet
facet normal -0.9914448613745613 -0.13052619221434789 -4.2464896738375306e-19
  outer loop
    vertex 2203.554794607151 511.35936442285396 1.0000000000003761
    vertex 2203.5888687808606 511.10054537775034 1.0000000000003761
    vertex 2203.554794607151 511.35936442285396 7.000000000000375
  endloop
endfacet
facet normal -0.3826834323603537 0.9238795325132485 0.0
  outer loop
    vertex 2210.7959755620464 537.325290249141 7.000000000000377
    vertex 2210.7959755620464 537.325290249141 1.0000000000003795
    vertex 2210.55479460715 537.2253898266382 7.000000000000377
  endloop
endfacet
facet normal 0.0 0.0 1.0
  outer loop
    vertex 2205.520720433439 511.6181834679556 7.000000000000375
    vertex 2205.4208200109338 511.85936442285276 7.000000000000375
    vertex 2205.420820010935 510.85936442285345 7.000000000000375
  endloop
endfacet
facet normal -0.6087614290080882 -0.7933533402917204 2.1227163999806204e-18
  outer loop
    vertex 2196.3476878259635 535.652257641666 7.000000000000377
    vertex 2196.3476878259635 535.652257641666 1.0000000000003775
    vertex 2196.55479460715 535.4933390190683 7.000000000000377
  endloop
endfacet
facet normal -0.9914448613742824 0.1305261922164675 8.492979347773355e-19
  outer loop
    vertex 2203.5888687808606 511.61818346795604 7.000000000000375
    vertex 2203.554794607151 511.35936442285396 1.0000000000003761
    vertex 2203.554794607151 511.35936442285396 7.000000000000375
  endloop
endfacet
facet normal 0.6087614290072177 0.7933533402923884 -2.122716399982406e-18
  outer loop
    vertex 2205.0547946071497 512.2253898266373 7.000000000000375
    vertex 2205.2619013883364 512.06647120404 1.0000000000003761
    vertex 2205.0547946071497 512.2253898266373 1.0000000000003761
  endloop
endfacet
facet normal -0.6087614290080882 -0.7933533402917204 2.12271639998062e-18
  outer loop
    vertex 2196.55479460715 535.4933390190683 7.000000000000377
    vertex 2196.3476878259635 535.652257641666 1.0000000000003775
    vertex 2196.55479460715 535.4933390190683 1.0000000000003775
  endloop
endfacet
facet normal -0.9238795325097847 -0.3826834323687165 -1.8228178968780006e-18
  outer loop
    vertex 2203.5888687808606 511.10054537775034 7.000000000000375
    vertex 2203.688769203366 510.8593644228535 1.0000000000003761
    vertex 2203.688769203366 510.8593644228535 7.000000000000375
  endloop
endfacet
facet normal 0.0 0.0 1.0
  outer loop
    vertex 2210.7959755620464 537.325290249141 7.000000000000377
    vertex 2210.55479460715 537.2253898266382 7.000000000000377
    vertex 2210.5547946071506 535.4933390190697 7.000000000000377
  endloop
endfacet
facet normal -0.7933533402934405 -0.6087614290058467 -4.245432799959346e-18
  outer loop
    vertex 2203.688769203366 510.8593644228535 7.000000000000375
    vertex 2203.847687825963 510.6522576416667 1.0000000000003761
    vertex 2203.847687825963 510.6522576416667 7.000000000000375
  endloop
endfacet
facet normal -0.9914448613736195 0.1305261922215014 8.492979347714379e-19
  outer loop
    vertex 2210.0888687808606 536.6181834679561 1.0000000000003795
    vertex 2210.0547946071492 536.3593644228532 1.0000000000003795
    vertex 2210.0888687808606 536.6181834679561 7.000000000000377
  endloop
endfacet
facet normal 0.0 0.0 1.0
  outer loop
    vertex 2197.5547946071506 535.493339019069 7.000000000000377
    vertex 2197.3136136522535 537.3252902491424 7.000000000000377
    vertex 2197.3136136522517 535.3934385965636 7.000000000000377
  endloop
endfacet
facet normal -0.9238795325112179 -0.3826834323652561 -1.8228178968685516e-18
  outer loop
    vertex 2196.0888687808606 536.1005453777503 7.000000000000377
    vertex 2196.1887692033656 535.8593644228527 1.0000000000003775
    vertex 2196.1887692033656 535.8593644228527 7.000000000000377
  endloop
endfacet
facet normal -0.9238795325100884 0.3826834323679831 3.64563579374083e-18
  outer loop
    vertex 2196.188769203366 536.8593644228534 7.000000000000377
    vertex 2196.0888687808606 536.6181834679561 1.0000000000003775
    vertex 2196.0888687808606 536.6181834679561 7.000000000000377
  endloop
endfacet
facet normal 0.0 0.0 1.0
  outer loop
    vertex 2210.7959755620477 535.3934385965644 7.000000000000377
    vertex 2210.7959755620464 537.325290249141 7.000000000000377
    vertex 2210.5547946071506 535.4933390190697 7.000000000000377
  endloop
endfacet
facet normal -0.6087614290096413 0.7933533402905287 2.1227163999922295e-18
  outer loop
    vertex 2196.347687825964 537.0664712040393 7.000000000000377
    vertex 2196.5547946071497 537.2253898266371 1.0000000000003775
    vertex 2196.347687825964 537.0664712040393 1.0000000000003775
  endloop
endfacet
facet normal 0.0 0.0 1.0
  outer loop
    vertex 2210.347687825964 537.0664712040391 7.000000000000377
    vertex 2210.188769203366 536.859364422853 7.000000000000377
    vertex 2210.188769203366 535.8593644228532 7.000000000000377
  endloop
endfacet
facet normal 0.9238795325107797 -0.38268343236631414 -1.822817896866325e-18
  outer loop
    vertex 2212.020720433439 536.1005453777507 7.000000000000377
    vertex 2211.9208200109338 535.859364422853 7.000000000000377
    vertex 2212.020720433439 536.1005453777507 1.0000000000003795
  endloop
endfacet
facet normal 0.0 0.0 1.0
  outer loop
    vertex 2212.054794607149 536.359364422852 7.000000000000377
    vertex 2212.0207204334392 536.6181834679561 7.000000000000377
    vertex 2212.020720433439 536.1005453777507 7.000000000000377
  endloop
endfacet
facet normal -0.7933533402904123 0.6087614290097932 -2.12271639998637e-18
  outer loop
    vertex 2210.347687825964 537.0664712040391 1.0000000000003795
    vertex 2210.188769203366 536.859364422853 1.0000000000003795
    vertex 2210.347687825964 537.0664712040391 7.000000000000377
  endloop
endfacet
facet normal 0.9914448613745966 0.13052619221407946 -4.246489673819919e-19
  outer loop
    vertex 2212.0207204334392 536.6181834679561 1.0000000000003795
    vertex 2212.054794607149 536.359364422852 7.000000000000377
    vertex 2212.054794607149 536.359364422852 1.0000000000003795
  endloop
endfacet
facet normal 0.0 0.0 1.0
  outer loop
    vertex 2211.7619013883364 537.0664712040398 7.000000000000377
    vertex 2211.5547946071506 535.4933390190685 7.000000000000377
    vertex 2211.7619013883354 535.6522576416663 7.000000000000377
  endloop
endfacet
facet normal 0.0 0.0 1.0
  outer loop
    vertex 2210.347687825964 537.0664712040391 7.000000000000377
    vertex 2210.188769203366 535.8593644228532 7.000000000000377
    vertex 2210.347687825964 535.6522576416676 7.000000000000377
  endloop
endfacet
facet normal 0.3826834323682189 0.9238795325099908 -1.8228178968893193e-18
  outer loop
    vertex 2197.3136136522535 537.3252902491424 7.000000000000377
    vertex 2197.5547946071492 537.2253898266374 1.0000000000003781
    vertex 2197.3136136522535 537.3252902491424 1.0000000000003781
  endloop
endfacet
facet normal 0.0 0.0 1.0
  outer loop
    vertex 2212.0207204334392 536.6181834679561 7.000000000000377
    vertex 2211.9208200109338 536.859364422853 7.000000000000377
    vertex 2212.020720433439 536.1005453777507 7.000000000000377
  endloop
endfacet
facet normal -0.9238795325100884 0.38268343236798313 1.8228178968704148e-18
  outer loop
    vertex 2196.188769203366 536.8593644228534 1.0000000000003775
    vertex 2196.0888687808606 536.6181834679561 1.0000000000003775
    vertex 2196.188769203366 536.8593644228534 7.000000000000377
  endloop
endfacet
facet normal 0.0 0.0 1.0
  outer loop
    vertex 2212.020720433439 536.1005453777507 7.000000000000377
    vertex 2211.9208200109338 536.859364422853 7.000000000000377
    vertex 2211.9208200109338 535.859364422853 7.000000000000377
  endloop
endfacet
facet normal 0.13052619222058962 -0.9914448613737395 4.2464896738873154e-19
  outer loop
    vertex 2211.313613652252 535.3934385965644 7.000000000000377
    vertex 2211.0547946071497 535.3593644228533 1.0000000000003795
    vertex 2211.313613652252 535.3934385965644 1.0000000000003795
  endloop
endfacet
facet normal -0.3826834323646958 0.9238795325114502 0.0
  outer loop
    vertex 2196.5547946071497 537.2253898266371 7.000000000000377
    vertex 2196.7959755620477 537.3252902491419 1.0000000000003781
    vertex 2196.5547946071497 537.2253898266371 1.0000000000003775
  endloop
endfacet
facet normal 0.0 0.0 1.0
  outer loop
    vertex 2210.5547946071506 535.4933390190697 7.000000000000377
    vertex 2210.347687825964 537.0664712040391 7.000000000000377
    vertex 2210.347687825964 535.6522576416676 7.000000000000377
  endloop
endfacet
facet normal 0.9238795325098351 0.38268343236859426 1.822817896876737e-18
  outer loop
    vertex 2211.9208200109338 536.859364422853 1.0000000000003795
    vertex 2212.0207204334392 536.6181834679561 7.000000000000377
    vertex 2212.0207204334392 536.6181834679561 1.0000000000003795
  endloop
endfacet
facet normal 1.0 -0.0 -0.0
  outer loop
    vertex 2198.342686726394 539.3647040315286 3.000000000000224
    vertex 2198.342686726394 541.3647040315285 16.227272727273853
    vertex 2198.342686726394 539.3647040315285 16.22727272727384
  endloop
endfacet
facet normal 1.0 -0.0 -0.0
  outer loop
    vertex 2198.342686726394 541.3647040315285 16.227272727273853
    vertex 2198.342686726394 539.3647040315286 3.000000000000224
    vertex 2198.342686726394 541.3647040315286 3.0000000000002354
  endloop
endfacet
facet normal -0.13052619221937323 -0.9914448613738998 -4.2464896738524648e-19
  outer loop
    vertex 2197.0547946071506 535.3593644228533 7.000000000000377
    vertex 2196.7959755620477 535.3934385965642 1.0000000000003775
    vertex 2197.0547946071506 535.3593644228533 1.0000000000003775
  endloop
endfacet
facet normal -0.6087614290124548 0.7933533402883701 -2.122716399979057e-18
  outer loop
    vertex 2210.55479460715 537.2253898266382 7.000000000000377
    vertex 2210.55479460715 537.2253898266382 1.0000000000003795
    vertex 2210.347687825964 537.0664712040391 7.000000000000377
  endloop
endfacet
facet normal 0.0 0.0 1.0
  outer loop
    vertex 2210.0888687808606 536.6181834679561 7.000000000000377
    vertex 2210.0547946071492 536.3593644228532 7.000000000000377
    vertex 2210.0888687808606 536.1005453777507 7.000000000000377
  endloop
endfacet
facet normal -0.9238795325101389 -0.382683432367861 0.0
  outer loop
    vertex 2210.0888687808606 536.1005453777507 1.0000000000003795
    vertex 2210.188769203366 535.8593644228532 1.0000000000003795
    vertex 2210.0888687808606 536.1005453777507 7.000000000000377
  endloop
endfacet
facet normal 0.0 0.0 1.0
  outer loop
    vertex 2211.9208200109338 536.859364422853 7.000000000000377
    vertex 2211.7619013883364 537.0664712040398 7.000000000000377
    vertex 2211.9208200109338 535.859364422853 7.000000000000377
  endloop
endfacet
facet normal 0.3826834323657833 -0.9238795325109995 1.8228178968476607e-18
  outer loop
    vertex 2197.5547946071506 535.493339019069 7.000000000000377
    vertex 2197.3136136522517 535.3934385965636 1.0000000000003775
    vertex 2197.5547946071506 535.493339019069 1.0000000000003775
  endloop
endfacet
facet normal -0.13052619221937323 -0.9914448613738998 0.0
  outer loop
    vertex 2196.7959755620477 535.3934385965642 7.000000000000377
    vertex 2196.7959755620477 535.3934385965642 1.0000000000003775
    vertex 2197.0547946071506 535.3593644228533 7.000000000000377
  endloop
endfacet
facet normal 0.38268343236429064 0.9238795325116178 0.0
  outer loop
    vertex 2211.313613652252 537.3252902491415 7.000000000000377
    vertex 2211.5547946071492 537.2253898266374 1.0000000000003795
    vertex 2211.313613652252 537.3252902491415 1.0000000000003795
  endloop
endfacet
facet normal 0.7933533402926446 0.608761429006884 2.1227163999793947e-18
  outer loop
    vertex 2211.7619013883364 537.0664712040398 7.000000000000377
    vertex 2211.9208200109338 536.859364422853 7.000000000000377
    vertex 2211.7619013883364 537.0664712040398 1.0000000000003795
  endloop
endfacet
facet normal 0.991444861373948 0.1305261922190068 4.2464896738733986e-19
  outer loop
    vertex 2205.520720433439 511.6181834679556 1.0000000000003761
    vertex 2205.5547946071492 511.3593644228531 7.000000000000375
    vertex 2205.5547946071492 511.3593644228531 1.0000000000003761
  endloop
endfacet
facet normal -0.7933533402904123 0.6087614290097931 2.1227163999863705e-18
  outer loop
    vertex 2210.347687825964 537.0664712040391 7.000000000000377
    vertex 2210.188769203366 536.859364422853 1.0000000000003795
    vertex 2210.188769203366 536.859364422853 7.000000000000377
  endloop
endfacet
facet normal 0.0 0.0 1.0
  outer loop
    vertex 2198.020720433439 536.6181834679558 7.000000000000377
    vertex 2197.920820010935 536.8593644228539 7.000000000000377
    vertex 2198.020720433439 536.1005453777503 7.000000000000377
  endloop
endfacet
facet normal 0.0 0.0 1.0
  outer loop
    vertex 2210.5547946071506 535.4933390190697 7.000000000000377
    vertex 2210.55479460715 537.2253898266382 7.000000000000377
    vertex 2210.347687825964 537.0664712040391 7.000000000000377
  endloop
endfacet
facet normal 0.3826834323642993 0.9238795325116143 -3.645635793730483e-18
  outer loop
    vertex 2205.0547946071497 512.2253898266373 7.000000000000375
    vertex 2205.0547946071497 512.2253898266373 1.0000000000003761
    vertex 2204.813613652252 512.3252902491419 7.000000000000375
  endloop
endfacet
facet normal 0.13052619221919434 0.9914448613739234 1.2739469021522172e-18
  outer loop
    vertex 2197.0547946071497 537.3593644228532 7.000000000000377
    vertex 2197.3136136522535 537.3252902491424 1.0000000000003781
    vertex 2197.0547946071497 537.3593644228532 1.0000000000003781
  endloop
endfacet
facet normal 0.6087614290072179 0.7933533402923882 0.0
  outer loop
    vertex 2205.2619013883364 512.06647120404 7.000000000000375
    vertex 2205.2619013883364 512.06647120404 1.0000000000003761
    vertex 2205.0547946071497 512.2253898266373 7.000000000000375
  endloop
endfacet
facet normal -0.7933533402934405 -0.6087614290058466 -2.122716399979672e-18
  outer loop
    vertex 2203.688769203366 510.8593644228535 1.0000000000003761
    vertex 2203.847687825963 510.6522576416667 1.0000000000003761
    vertex 2203.688769203366 510.8593644228535 7.000000000000375
  endloop
endfacet
facet normal 0.0 0.0 1.0
  outer loop
    vertex 2211.313613652252 537.3252902491415 7.000000000000377
    vertex 2211.0547946071497 537.359364422853 7.000000000000377
    vertex 2211.0547946071497 535.3593644228533 7.000000000000377
  endloop
endfacet
facet normal -0.3826834323646958 0.9238795325114502 1.8228178968594624e-18
  outer loop
    vertex 2196.7959755620477 537.3252902491419 7.000000000000377
    vertex 2196.7959755620477 537.3252902491419 1.0000000000003781
    vertex 2196.5547946071497 537.2253898266371 7.000000000000377
  endloop
endfacet
facet normal 0.0 0.0 1.0
  outer loop
    vertex 2211.0547946071497 537.359364422853 7.000000000000377
    vertex 2210.7959755620464 537.325290249141 7.000000000000377
    vertex 2210.7959755620477 535.3934385965644 7.000000000000377
  endloop
endfacet
facet normal 0.0 0.0 1.0
  outer loop
    vertex 2197.920820010935 536.8593644228539 7.000000000000377
    vertex 2197.761901388337 535.6522576416672 7.000000000000377
    vertex 2197.920820010934 535.8593644228529 7.000000000000377
  endloop
endfacet
facet normal 0.0 0.0 1.0
  outer loop
    vertex 2197.920820010935 536.8593644228539 7.000000000000377
    vertex 2197.761901388337 537.0664712040394 7.000000000000377
    vertex 2197.761901388337 535.6522576416672 7.000000000000377
  endloop
endfacet
facet normal -0.9914448613741799 0.13052619221724507 0.0
  outer loop
    vertex 2196.0888687808606 536.6181834679561 1.0000000000003775
    vertex 2196.0547946071506 536.3593644228529 1.0000000000003775
    vertex 2196.0888687808606 536.6181834679561 7.000000000000377
  endloop
endfacet
facet normal 0.38268343236578334 -0.9238795325109995 3.6456357936953206e-18
  outer loop
    vertex 2197.3136136522517 535.3934385965636 7.000000000000377
    vertex 2197.3136136522517 535.3934385965636 1.0000000000003775
    vertex 2197.5547946071506 535.493339019069 7.000000000000377
  endloop
endfacet
facet normal 0.38268343236429087 0.9238795325116178 1.8228178968816187e-18
  outer loop
    vertex 2211.5547946071492 537.2253898266374 7.000000000000377
    vertex 2211.5547946071492 537.2253898266374 1.0000000000003795
    vertex 2211.313613652252 537.3252902491415 7.000000000000377
  endloop
endfacet
facet normal 0.38268343236360813 -0.9238795325119006 -1.8228178968712626e-18
  outer loop
    vertex 2204.813613652253 510.3934385965648 7.000000000000375
    vertex 2204.813613652253 510.3934385965648 1.0000000000003761
    vertex 2205.0547946071506 510.493339019069 7.000000000000375
  endloop
endfacet
facet normal 0.0 0.0 1.0
  outer loop
    vertex 2211.9208200109338 535.859364422853 7.000000000000377
    vertex 2211.7619013883364 537.0664712040398 7.000000000000377
    vertex 2211.7619013883354 535.6522576416663 7.000000000000377
  endloop
endfacet
facet normal 0.13052619222058962 -0.9914448613737395 4.2464896738873164e-19
  outer loop
    vertex 2211.0547946071497 535.3593644228533 7.000000000000377
    vertex 2211.0547946071497 535.3593644228533 1.0000000000003795
    vertex 2211.313613652252 535.3934385965644 7.000000000000377
  endloop
endfacet
facet normal 0.0 0.0 1.0
  outer loop
    vertex 2211.313613652252 537.3252902491415 7.000000000000377
    vertex 2211.0547946071497 535.3593644228533 7.000000000000377
    vertex 2211.313613652252 535.3934385965644 7.000000000000377
  endloop
endfacet
facet normal 0.0 0.0 1.0
  outer loop
    vertex 2211.7619013883364 537.0664712040398 7.000000000000377
    vertex 2211.5547946071492 537.2253898266374 7.000000000000377
    vertex 2211.5547946071506 535.4933390190685 7.000000000000377
  endloop
endfacet
facet normal 0.9914448613734643 -0.1305261922226817 -2.1232448369223395e-18
  outer loop
    vertex 2198.05479460715 536.3593644228536 1.0000000000003781
    vertex 2198.020720433439 536.1005453777503 7.000000000000377
    vertex 2198.020720433439 536.1005453777503 1.0000000000003781
  endloop
endfacet
facet normal 0.9914448613740975 -0.13052619221787137 0.0
  outer loop
    vertex 2205.5547946071492 511.3593644228531 7.000000000000375
    vertex 2205.5207204334392 511.10054537775113 7.000000000000375
    vertex 2205.5547946071492 511.3593644228531 1.0000000000003761
  endloop
endfacet
facet normal 0.13052619221919434 0.9914448613739234 8.492979347681448e-19
  outer loop
    vertex 2197.3136136522535 537.3252902491424 7.000000000000377
    vertex 2197.3136136522535 537.3252902491424 1.0000000000003781
    vertex 2197.0547946071497 537.3593644228532 7.000000000000377
  endloop
endfacet
facet normal 0.3826834323682189 0.9238795325099908 -1.822817896889319e-18
  outer loop
    vertex 2197.5547946071492 537.2253898266374 7.000000000000377
    vertex 2197.5547946071492 537.2253898266374 1.0000000000003781
    vertex 2197.3136136522535 537.3252902491424 7.000000000000377
  endloop
endfacet
facet normal 0.991444861373948 0.13052619221900688 1.6985958695493602e-18
  outer loop
    vertex 2205.520720433439 511.6181834679556 7.000000000000375
    vertex 2205.5547946071492 511.3593644228531 7.000000000000375
    vertex 2205.520720433439 511.6181834679556 1.0000000000003761
  endloop
endfacet
facet normal -0.6087614290096413 0.793353340290529 6.368149199976692e-18
  outer loop
    vertex 2196.5547946071497 537.2253898266371 7.000000000000377
    vertex 2196.5547946071497 537.2253898266371 1.0000000000003775
    vertex 2196.347687825964 537.0664712040393 7.000000000000377
  endloop
endfacet
facet normal 0.0 0.0 1.0
  outer loop
    vertex 2211.5547946071506 535.4933390190685 7.000000000000377
    vertex 2211.5547946071492 537.2253898266374 7.000000000000377
    vertex 2211.313613652252 537.3252902491415 7.000000000000377
  endloop
endfacet
facet normal 0.3826834323642993 0.9238795325116143 -3.645635793730482e-18
  outer loop
    vertex 2204.813613652252 512.3252902491419 7.000000000000375
    vertex 2205.0547946071497 512.2253898266373 1.0000000000003761
    vertex 2204.813613652252 512.3252902491419 1.0000000000003761
  endloop
endfacet
facet normal -0.1305261922219488 0.9914448613735608 4.246489673886549e-19
  outer loop
    vertex 2196.7959755620477 537.3252902491419 7.000000000000377
    vertex 2197.0547946071497 537.3593644228532 1.0000000000003781
    vertex 2196.7959755620477 537.3252902491419 1.0000000000003781
  endloop
endfacet
facet normal -0.9238795325101389 -0.38268343236786095 -1.822817896869153e-18
  outer loop
    vertex 2210.0888687808606 536.1005453777507 7.000000000000377
    vertex 2210.188769203366 535.8593644228532 1.0000000000003795
    vertex 2210.188769203366 535.8593644228532 7.000000000000377
  endloop
endfacet
facet normal 0.9238795325116055 -0.38268343236432034 0.0
  outer loop
    vertex 2198.020720433439 536.1005453777503 7.000000000000377
    vertex 2197.920820010934 535.8593644228529 7.000000000000377
    vertex 2198.020720433439 536.1005453777503 1.0000000000003781
  endloop
endfacet
facet normal -0.7933533402913091 -0.6087614290086245 -2.1227163999758195e-18
  outer loop
    vertex 2196.1887692033656 535.8593644228527 1.0000000000003775
    vertex 2196.3476878259635 535.652257641666 1.0000000000003775
    vertex 2196.1887692033656 535.8593644228527 7.000000000000377
  endloop
endfacet
facet normal 0.0 0.0 1.0
  outer loop
    vertex 2210.188769203366 535.8593644228532 7.000000000000377
    vertex 2210.188769203366 536.859364422853 7.000000000000377
    vertex 2210.0888687808606 536.6181834679561 7.000000000000377
  endloop
endfacet
facet normal 0.9914448613745966 0.13052619221407943 4.24648967381992e-19
  outer loop
    vertex 2212.0207204334392 536.6181834679561 7.000000000000377
    vertex 2212.054794607149 536.359364422852 7.000000000000377
    vertex 2212.0207204334392 536.6181834679561 1.0000000000003795
  endloop
endfacet
facet normal 0.9238795325107797 -0.3826834323663141 1.8228178968663237e-18
  outer loop
    vertex 2212.020720433439 536.1005453777507 1.0000000000003795
    vertex 2211.9208200109338 535.859364422853 7.000000000000377
    vertex 2211.9208200109338 535.859364422853 1.0000000000003795
  endloop
endfacet
facet normal 0.0 0.0 1.0
  outer loop
    vertex 2211.5547946071506 535.4933390190685 7.000000000000377
    vertex 2211.313613652252 537.3252902491415 7.000000000000377
    vertex 2211.313613652252 535.3934385965644 7.000000000000377
  endloop
endfacet
facet normal 1.6899063847623915e-15 1.9475393520095943e-14 1.0
  outer loop
    vertex 2215.342686726394 539.3647040315286 3.000000000000245
    vertex 2198.342686726394 541.3647040315286 3.0000000000002354
    vertex 2198.342686726394 539.3647040315286 3.000000000000224
  endloop
endfacet
facet normal 1.6899063847623915e-15 1.9475393520095943e-14 1.0
  outer loop
    vertex 2198.342686726394 541.3647040315286 3.0000000000002354
    vertex 2215.342686726394 539.3647040315286 3.000000000000245
    vertex 2215.342686726394 541.3647040315283 3.0000000000001563
  endloop
endfacet
facet normal -2.4633215989905997e-29 -1.0 1.9475393520095943e-14
  outer loop
    vertex 2215.342686726394 539.3647040315286 1.0000000000002454
    vertex 2198.342686726394 539.3647040315286 3.000000000000224
    vertex 2198.342686726394 539.3647040315286 1.0000000000002238
  endloop
endfacet
facet normal -2.4633215989905997e-29 -1.0 1.9475393520095943e-14
  outer loop
    vertex 2198.342686726394 539.3647040315286 3.000000000000224
    vertex 2215.342686726394 539.3647040315286 1.0000000000002454
    vertex 2215.342686726394 539.3647040315286 3.000000000000245
  endloop
endfacet
facet normal -3.1229310151190526e-14 3.6459018762223e-14 1.0
  outer loop
    vertex 2215.3426867263925 499.3647040315287 1.0000000000024798
    vertex 2192.342686726394 539.3647040315286 1.0000000000002238
    vertex 2192.342686726393 499.3647040315291 1.0000000000010134
  endloop
endfacet
facet normal -3.1229310151190526e-14 3.6459018762223e-14 1.0
  outer loop
    vertex 2192.342686726394 539.3647040315286 1.0000000000002238
    vertex 2215.3426867263925 499.3647040315287 1.0000000000024798
    vertex 2198.342686726394 539.3647040315286 1.0000000000002238
  endloop
endfacet
facet normal -3.1229310151190526e-14 3.6459018762223e-14 1.0
  outer loop
    vertex 2198.342686726394 539.3647040315286 1.0000000000002238
    vertex 2215.3426867263925 499.3647040315287 1.0000000000024798
    vertex 2215.342686726394 539.3647040315286 1.0000000000002454
  endloop
endfacet
endsolid Sword2
