solid Sword2
facet normal 0.9059185118519619 -0.13804917022696042 -0.4003174696207682
  outer loop
    vertex 2159.173554878934 625.9462480661748 20.00000000000002
    vertex 2158.6229810692985 622.3332237686056 20.00000000000002
    vertex 2149.979894341159 623.6111534045546 0.0
  endloop
endfacet
facet normal 0.8871094467857006 -0.3967093647953474 -0.23592055719508706
  outer loop
    vertex 2148.737125896383 618.7238050185845 0.0
    vertex 2151.928616598338 613.966645847807 20.00000000000002
    vertex 2147.7061066774977 616.4182711188146 0.0
  endloop
endfacet
facet normal 0.7435629337167186 -0.594948296964077 -0.3052059756003006
  outer loop
    vertex 2157.156048108664 618.9858092762411 20.00000000000002
    vertex 2154.8727250540774 616.1321253548729 20.00000000000002
    vertex 2148.737125896383 618.7238050185845 0.0
  endloop
endfacet
facet normal 0.8860820661289388 -0.28010502478960375 -0.3693233639675219
  outer loop
    vertex 2149.4983689859373 621.1319155125838 0.0
    vertex 2157.156048108664 618.9858092762411 20.00000000000002
    vertex 2148.737125896383 618.7238050185845 0.0
  endloop
endfacet
facet normal 0.5696491152272495 -0.774474554699063 -0.27511642925223484
  outer loop
    vertex 2151.928616598338 613.966645847807 20.00000000000002
    vertex 2148.737125896383 618.7238050185845 0.0
    vertex 2154.8727250540774 616.1321253548729 20.00000000000002
  endloop
endfacet
facet normal 0.8522249635891456 -0.3734694020761196 -0.36637851622111445
  outer loop
    vertex 2158.6229810692985 622.3332237686056 20.00000000000002
    vertex 2157.156048108664 618.9858092762411 20.00000000000002
    vertex 2149.4983689859373 621.1319155125838 0.0
  endloop
endfacet
facet normal 0.35737007585509795 -0.9149272063778506 -0.187602867549896
  outer loop
    vertex 2148.5243588673343 612.6369446048238 20.00000000000002
    vertex 2147.7061066774977 616.4182711188146 0.0
    vertex 2151.928616598338 613.966645847807 20.00000000000002
  endloop
endfacet
facet normal 0.0 0.0 -1.0
  outer loop
    vertex 2145.460945380958 640.2278565454758 0.0
    vertex 2146.4187761291028 614.24542339017 0.0
    vertex 2144.891946399633 612.2336385681997 0.0
  endloop
endfacet
facet normal 0.0 0.0 -1.0
  outer loop
    vertex 2146.4187761291028 614.24542339017 0.0
    vertex 2145.460945380958 640.2278565454758 0.0
    vertex 2146.9047664220348 638.155691495571 0.0
  endloop
endfacet
facet normal 0.0 0.0 -1.0
  outer loop
    vertex 2146.4187761291028 614.24542339017 0.0
    vertex 2146.9047664220348 638.155691495571 0.0
    vertex 2147.7061066774977 616.4182711188146 0.0
  endloop
endfacet
facet normal 0.0 0.0 -1.0
  outer loop
    vertex 2147.7061066774977 616.4182711188146 0.0
    vertex 2146.9047664220348 638.155691495571 0.0
    vertex 2148.1027413954894 635.9323284672541 0.0
  endloop
endfacet
facet normal 0.0 0.0 -1.0
  outer loop
    vertex 2147.7061066774977 616.4182711188146 0.0
    vertex 2148.1027413954894 635.9323284672541 0.0
    vertex 2148.737125896383 618.7238050185845 0.0
  endloop
endfacet
facet normal 0.0 0.0 -1.0
  outer loop
    vertex 2148.737125896383 618.7238050185845 0.0
    vertex 2148.1027413954894 635.9323284672541 0.0
    vertex 2149.0392251097246 633.5868039106416 0.0
  endloop
endfacet
facet normal 0.0 0.0 -1.0
  outer loop
    vertex 2148.737125896383 618.7238050185845 0.0
    vertex 2149.0392251097246 633.5868039106416 0.0
    vertex 2149.4983689859373 621.1319155125838 0.0
  endloop
endfacet
facet normal 0.0 0.0 -1.0
  outer loop
    vertex 2149.4983689859373 621.1319155125838 0.0
    vertex 2149.0392251097246 633.5868039106416 0.0
    vertex 2149.701987370079 631.1497496685384 0.0
  endloop
endfacet
facet normal 0.0 0.0 -1.0
  outer loop
    vertex 2149.4983689859373 621.1319155125838 0.0
    vertex 2149.701987370079 631.1497496685384 0.0
    vertex 2149.979894341159 623.6111534045546 0.0
  endloop
endfacet
facet normal 0.0 0.0 -1.0
  outer loop
    vertex 2149.979894341159 623.6111534045546 0.0
    vertex 2149.701987370079 631.1497496685384 0.0
    vertex 2150.0823727014576 628.6529929338176 0.0
  endloop
endfacet
facet normal 0.0 0.0 -1.0
  outer loop
    vertex 2149.979894341159 623.6111534045546 0.0
    vertex 2150.0823727014576 628.6529929338176 0.0
    vertex 2150.175413386238 626.1291405958866 0.0
  endloop
endfacet
facet normal 0.881154203237193 0.3518132260592353 -0.3159030295632208
  outer loop
    vertex 2148.1027413954894 635.9323284672541 0.0
    vertex 2155.275068092263 635.9270267206183 20.00000000000002
    vertex 2149.0392251097246 633.5868039106416 0.0
  endloop
endfacet
facet normal 0.0 0.0 -1.0
  outer loop
    vertex 2140.372997439433 628.8503417091209 0.0
    vertex 2140.2705190791344 623.808502179858 0.0
    vertex 2140.1774783943542 626.3323545177886 0.0
  endloop
endfacet
facet normal 0.0 0.0 -1.0
  outer loop
    vertex 2140.2705190791344 623.808502179858 0.0
    vertex 2140.372997439433 628.8503417091209 0.0
    vertex 2140.6509044105137 621.3117454451367 0.0
  endloop
endfacet
facet normal 0.0 0.0 -1.0
  outer loop
    vertex 2140.6509044105137 621.3117454451367 0.0
    vertex 2140.372997439433 628.8503417091209 0.0
    vertex 2140.854522794653 631.3295796010918 0.0
  endloop
endfacet
facet normal 0.0 0.0 -1.0
  outer loop
    vertex 2140.6509044105137 621.3117454451367 0.0
    vertex 2140.854522794653 631.3295796010918 0.0
    vertex 2141.3136666708674 618.8746912030335 0.0
  endloop
endfacet
facet normal 0.0 0.0 -1.0
  outer loop
    vertex 2141.3136666708674 618.8746912030335 0.0
    vertex 2140.854522794653 631.3295796010918 0.0
    vertex 2141.615765884208 633.7376900950909 0.0
  endloop
endfacet
facet normal 0.0 0.0 -1.0
  outer loop
    vertex 2141.3136666708674 618.8746912030335 0.0
    vertex 2141.615765884208 633.7376900950909 0.0
    vertex 2142.2501503851036 616.5291666464211 0.0
  endloop
endfacet
facet normal 0.0 0.0 -1.0
  outer loop
    vertex 2142.2501503851036 616.5291666464211 0.0
    vertex 2141.615765884208 633.7376900950909 0.0
    vertex 2142.6467851030948 636.043223994861 0.0
  endloop
endfacet
facet normal 0.0 0.0 -1.0
  outer loop
    vertex 2142.2501503851036 616.5291666464211 0.0
    vertex 2142.6467851030948 636.043223994861 0.0
    vertex 2143.448125358556 614.3058036181045 0.0
  endloop
endfacet
facet normal 0.0 0.0 -1.0
  outer loop
    vertex 2143.448125358556 614.3058036181045 0.0
    vertex 2142.6467851030948 636.043223994861 0.0
    vertex 2143.934115651489 638.2160717235053 0.0
  endloop
endfacet
facet normal 0.0 0.0 -1.0
  outer loop
    vertex 2143.448125358556 614.3058036181045 0.0
    vertex 2143.934115651489 638.2160717235053 0.0
    vertex 2144.891946399633 612.2336385681997 0.0
  endloop
endfacet
facet normal 0.0 0.0 -1.0
  outer loop
    vertex 2144.891946399633 612.2336385681997 0.0
    vertex 2143.934115651489 638.2160717235053 0.0
    vertex 2145.460945380958 640.2278565454758 0.0
  endloop
endfacet
facet normal 0.8967321323054397 0.24386827534278327 -0.3693233639675075
  outer loop
    vertex 2149.0392251097246 633.5868039106416 0.0
    vertex 2157.440547599326 632.9829182648797 20.00000000000002
    vertex 2149.701987370079 631.1497496685384 0.0
  endloop
endfacet
facet normal 0.8666967976240453 0.3385313040766653 -0.36637851622110346
  outer loop
    vertex 2157.440547599326 632.9829182648797 20.00000000000002
    vertex 2158.7702488423097 629.5786605338745 20.00000000000002
    vertex 2149.701987370079 631.1497496685384 0.0
  endloop
endfacet
facet normal 0.7671241738225336 0.5642426910425777 -0.3052059756002913
  outer loop
    vertex 2155.275068092263 635.9270267206183 20.00000000000002
    vertex 2157.440547599326 632.9829182648797 20.00000000000002
    vertex 2149.0392251097246 633.5868039106416 0.0
  endloop
endfacet
facet normal 0.9060688938728674 0.13804120828242677 -0.39997972995131426
  outer loop
    vertex 2149.701987370079 631.1497496685384 0.0
    vertex 2158.7702488423097 629.5786605338745 20.00000000000002
    vertex 2150.0823727014576 628.6529929338176 0.0
  endloop
endfacet
facet normal 0.6096706783258283 0.7619628806238495 -0.218435877412868
  outer loop
    vertex 2155.275068092263 635.9270267206183 20.00000000000002
    vertex 2148.1027413954894 635.9323284672541 0.0
    vertex 2152.421384170894 638.2103497752059 20.00000000000002
  endloop
endfacet
facet normal 0.9115531128026421 0.03360399677689674 -0.4098068983563261
  outer loop
    vertex 2150.0823727014576 628.6529929338176 0.0
    vertex 2159.173554878934 625.9462480661748 20.00000000000002
    vertex 2150.175413386238 626.1291405958866 0.0
  endloop
endfacet
facet normal 0.9107798415265049 0.10112370535826906 -0.40031746962076104
  outer loop
    vertex 2158.7702488423097 629.5786605338745 20.00000000000002
    vertex 2159.173554878934 625.9462480661748 20.00000000000002
    vertex 2150.0823727014576 628.6529929338176 0.0
  endloop
endfacet
facet normal 0.8552271549153613 0.4608067666671292 -0.23715741036105742
  outer loop
    vertex 2152.421384170894 638.2103497752059 20.00000000000002
    vertex 2148.1027413954894 635.9323284672541 0.0
    vertex 2146.9047664220348 638.155691495571 0.0
  endloop
endfacet
facet normal -0.9050403302477413 0.2860980419648227 -0.31472195825673516
  outer loop
    vertex 2135.4801667265133 636.3293697588024 20.00000000000002
    vertex 2141.615765884208 633.7376900950909 0.0
    vertex 2140.854522794653 631.3295796010918 0.0
  endloop
endfacet
facet normal -0.8666967976240452 -0.3385313040766651 -0.3663785162211034
  outer loop
    vertex 2131.582642938282 622.8828345798006 20.00000000000002
    vertex 2140.6509044105137 621.3117454451367 0.0
    vertex 2132.9123441812667 619.4785768487951 20.00000000000002
  endloop
endfacet
facet normal -0.3942524278915072 -0.8996500359521507 -0.18760286754990213
  outer loop
    vertex 2137.9315076096996 614.2511453384691 20.00000000000002
    vertex 2142.2501503851036 616.5291666464211 0.0
    vertex 2141.278922102065 612.784212377835 20.00000000000002
  endloop
endfacet
facet normal -0.6096706783258283 -0.7619628806238495 -0.218435877412868
  outer loop
    vertex 2135.0778236883298 616.5344683930565 20.00000000000002
    vertex 2142.2501503851036 616.5291666464211 0.0
    vertex 2137.9315076096996 614.2511453384691 20.00000000000002
  endloop
endfacet
facet normal -0.881154203237193 -0.3518132260592353 -0.3159030295632208
  outer loop
    vertex 2141.3136666708674 618.8746912030335 0.0
    vertex 2142.2501503851036 616.5291666464211 0.0
    vertex 2135.0778236883298 616.5344683930565 20.00000000000002
  endloop
endfacet
facet normal -0.9115531128026421 -0.03360399677689674 -0.4098068983563261
  outer loop
    vertex 2131.1793369016586 626.5152470475002 20.00000000000002
    vertex 2140.1774783943542 626.3323545177886 0.0
    vertex 2140.2705190791344 623.808502179858 0.0
  endloop
endfacet
facet normal -0.8967321323054394 -0.24386827534278468 -0.36932336396750753
  outer loop
    vertex 2140.6509044105137 621.3117454451367 0.0
    vertex 2141.3136666708674 618.8746912030335 0.0
    vertex 2132.9123441812667 619.4785768487951 20.00000000000002
  endloop
endfacet
facet normal -0.9060688938728676 -0.13804120828242586 -0.3999797299513144
  outer loop
    vertex 2140.2705190791344 623.808502179858 0.0
    vertex 2140.6509044105137 621.3117454451367 0.0
    vertex 2131.582642938282 622.8828345798006 20.00000000000002
  endloop
endfacet
facet normal -0.8728201444750087 -0.4702860828796636 -0.13044537419290647
  outer loop
    vertex 2142.2501503851036 616.5291666464211 0.0
    vertex 2143.448125358556 614.3058036181045 0.0
    vertex 2141.278922102065 612.784212377835 20.00000000000002
  endloop
endfacet
facet normal -0.7671241738225333 -0.5642426910425781 -0.30520597560029106
  outer loop
    vertex 2132.9123441812667 619.4785768487951 20.00000000000002
    vertex 2141.3136666708674 618.8746912030335 0.0
    vertex 2135.0778236883298 616.5344683930565 20.00000000000002
  endloop
endfacet
facet normal -0.9107798415265049 -0.10112370535826884 -0.400317469620761
  outer loop
    vertex 2131.1793369016586 626.5152470475002 20.00000000000002
    vertex 2140.2705190791344 623.808502179858 0.0
    vertex 2131.582642938282 622.8828345798006 20.00000000000002
  endloop
endfacet
facet normal -0.9094347667495105 0.07061664879355306 -0.40980689835632517
  outer loop
    vertex 2140.372997439433 628.8503417091209 0.0
    vertex 2140.1774783943542 626.3323545177886 0.0
    vertex 2131.1793369016586 626.5152470475002 20.00000000000002
  endloop
endfacet
facet normal -0.150019396972067 -0.9844705957334843 -0.09116921996099435
  outer loop
    vertex 2141.278922102065 612.784212377835 20.00000000000002
    vertex 2143.448125358556 614.3058036181045 0.0
    vertex 2144.891946399633 612.2336385681998 20.00000000000002
  endloop
endfacet
facet normal -0.27839455630231136 -0.9604667985002081 0.0
  outer loop
    vertex 2148.5123760546194 637.7397734785549 39.99999999999999
    vertex 2145.419951891594 638.2110151897132 20.00000000000002
    vertex 2148.5123760546194 637.7397734785549 20.00000000000002
  endloop
endfacet
facet normal -0.020321392190190857 -0.9997934991884337 0.0
  outer loop
    vertex 2145.419951891594 638.2110151897132 20.00000000000002
    vertex 2148.5123760546194 637.7397734785549 39.99999999999999
    vertex 2145.419951891594 638.2110151897132 39.99999999999999
  endloop
endfacet
facet normal -0.7213301572832045 -0.6925913688415324 0.0
  outer loop
    vertex 2153.8199591187085 634.5298912956963 39.99999999999999
    vertex 2151.3774620898307 636.4842106703954 20.00000000000002
    vertex 2153.8199591187085 634.5298912956963 20.00000000000002
  endloop
endfacet
facet normal -0.5174955914711628 -0.8556858727406405 0.0
  outer loop
    vertex 2151.3774620898307 636.4842106703954 20.00000000000002
    vertex 2153.8199591187085 634.5298912956963 39.99999999999999
    vertex 2151.3774620898307 636.4842106703954 39.99999999999999
  endloop
endfacet
facet normal -0.0 -0.0 1.0
  outer loop
    vertex 2133.5413719871135 623.3652348635347 20.00000000000002
    vertex 2133.667419968579 629.566677721161 20.00000000000002
    vertex 2133.19617825742 626.4742535581356 20.00000000000002
  endloop
endfacet
facet normal -0.0 -0.0 1.0
  outer loop
    vertex 2133.667419968579 629.566677721161 20.00000000000002
    vertex 2133.5413719871135 623.3652348635347 20.00000000000002
    vertex 2134.679476775442 620.4514961234971 20.00000000000002
  endloop
endfacet
facet normal -0.0 -0.0 1.0
  outer loop
    vertex 2133.667419968579 629.566677721161 20.00000000000002
    vertex 2134.679476775442 620.4514961234971 20.00000000000002
    vertex 2134.9229827767376 632.4317637563737 20.00000000000002
  endloop
endfacet
facet normal -0.0 -0.0 1.0
  outer loop
    vertex 2134.9229827767376 632.4317637563737 20.00000000000002
    vertex 2134.679476775442 620.4514961234971 20.00000000000002
    vertex 2136.5329326618826 617.9316038179791 20.00000000000002
  endloop
endfacet
facet normal -0.0 -0.0 1.0
  outer loop
    vertex 2134.9229827767376 632.4317637563737 20.00000000000002
    vertex 2136.5329326618826 617.9316038179791 20.00000000000002
    vertex 2136.877302151437 634.8742607852511 20.00000000000002
  endloop
endfacet
facet normal -0.0 -0.0 1.0
  outer loop
    vertex 2136.877302151437 634.8742607852511 20.00000000000002
    vertex 2136.5329326618826 617.9316038179791 20.00000000000002
    vertex 2138.97542969076 615.97728444328 20.00000000000002
  endloop
endfacet
facet normal -0.0 -0.0 1.0
  outer loop
    vertex 2136.877302151437 634.8742607852511 20.00000000000002
    vertex 2138.97542969076 615.97728444328 20.00000000000002
    vertex 2139.3971944569553 636.7277166716934 20.00000000000002
  endloop
endfacet
facet normal -0.0 -0.0 1.0
  outer loop
    vertex 2139.3971944569553 636.7277166716934 20.00000000000002
    vertex 2138.97542969076 615.97728444328 20.00000000000002
    vertex 2140.177478394353 619.2307475568372 20.00000000000002
  endloop
endfacet
facet normal -0.0 -0.0 1.0
  outer loop
    vertex 2140.177478394353 619.2307475568372 20.00000000000002
    vertex 2138.97542969076 615.97728444328 20.00000000000002
    vertex 2141.8405157259726 614.7217216351205 20.00000000000002
  endloop
endfacet
facet normal -0.0 -0.0 1.0
  outer loop
    vertex 2140.177478394353 619.2307475568372 20.00000000000002
    vertex 2141.8405157259726 614.7217216351205 20.00000000000002
    vertex 2150.1764458902953 619.2307475568372 20.00000000000002
  endloop
endfacet
facet normal -0.0 -0.0 1.0
  outer loop
    vertex 2150.1764458902953 619.2307475568372 20.00000000000002
    vertex 2141.8405157259726 614.7217216351205 20.00000000000002
    vertex 2144.932939888998 614.2504799239622 20.00000000000002
  endloop
endfacet
facet normal -0.0 -0.0 1.0
  outer loop
    vertex 2150.1764458902953 619.2307475568372 20.00000000000002
    vertex 2144.932939888998 614.2504799239622 20.00000000000002
    vertex 2148.0419585835994 614.595673653655 20.00000000000002
  endloop
endfacet
facet normal -0.0 -0.0 1.0
  outer loop
    vertex 2150.1764458902953 619.2307475568372 20.00000000000002
    vertex 2148.0419585835994 614.595673653655 20.00000000000002
    vertex 2150.955697323637 615.7337784419825 20.00000000000002
  endloop
endfacet
facet normal -0.0 -0.0 1.0
  outer loop
    vertex 2150.1764458902953 619.2307475568372 20.00000000000002
    vertex 2150.955697323637 615.7337784419825 20.00000000000002
    vertex 2150.1764458902953 633.2307475568372 20.00000000000002
  endloop
endfacet
facet normal -0.0 -0.0 1.0
  outer loop
    vertex 2139.3971944569553 636.7277166716934 20.00000000000002
    vertex 2140.177478394353 633.2307475568372 20.00000000000002
    vertex 2142.3109331969927 637.8658214600201 20.00000000000002
  endloop
endfacet
facet normal -0.0 -0.0 1.0
  outer loop
    vertex 2140.177478394353 633.2307475568372 20.00000000000002
    vertex 2139.3971944569553 636.7277166716934 20.00000000000002
    vertex 2140.177478394353 619.2307475568372 20.00000000000002
  endloop
endfacet
facet normal -0.0 -0.0 1.0
  outer loop
    vertex 2142.3109331969927 637.8658214600201 20.00000000000002
    vertex 2140.177478394353 633.2307475568372 20.00000000000002
    vertex 2150.1764458902953 633.2307475568372 20.00000000000002
  endloop
endfacet
facet normal -0.0 -0.0 1.0
  outer loop
    vertex 2142.3109331969927 637.8658214600201 20.00000000000002
    vertex 2150.1764458902953 633.2307475568372 20.00000000000002
    vertex 2145.419951891594 638.2110151897132 20.00000000000002
  endloop
endfacet
facet normal -0.0 -0.0 1.0
  outer loop
    vertex 2145.419951891594 638.2110151897132 20.00000000000002
    vertex 2150.1764458902953 633.2307475568372 20.00000000000002
    vertex 2148.5123760546194 637.7397734785549 20.00000000000002
  endloop
endfacet
facet normal -0.0 -0.0 1.0
  outer loop
    vertex 2148.5123760546194 637.7397734785549 20.00000000000002
    vertex 2150.1764458902953 633.2307475568372 20.00000000000002
    vertex 2151.3774620898307 636.4842106703954 20.00000000000002
  endloop
endfacet
facet normal -0.0 -0.0 1.0
  outer loop
    vertex 2151.3774620898307 636.4842106703954 20.00000000000002
    vertex 2150.1764458902953 633.2307475568372 20.00000000000002
    vertex 2150.955697323637 615.7337784419825 20.00000000000002
  endloop
endfacet
facet normal -0.0 -0.0 1.0
  outer loop
    vertex 2151.3774620898307 636.4842106703954 20.00000000000002
    vertex 2150.955697323637 615.7337784419825 20.00000000000002
    vertex 2153.4755896291563 617.587234328424 20.00000000000002
  endloop
endfacet
facet normal -0.0 -0.0 1.0
  outer loop
    vertex 2151.3774620898307 636.4842106703954 20.00000000000002
    vertex 2153.4755896291563 617.587234328424 20.00000000000002
    vertex 2153.8199591187085 634.5298912956963 20.00000000000002
  endloop
endfacet
facet normal -0.0 -0.0 1.0
  outer loop
    vertex 2153.8199591187085 634.5298912956963 20.00000000000002
    vertex 2153.4755896291563 617.587234328424 20.00000000000002
    vertex 2155.4299090038535 620.0297313573014 20.00000000000002
  endloop
endfacet
facet normal -0.0 -0.0 1.0
  outer loop
    vertex 2153.8199591187085 634.5298912956963 20.00000000000002
    vertex 2155.4299090038535 620.0297313573014 20.00000000000002
    vertex 2155.6734150051507 632.0099989901784 20.00000000000002
  endloop
endfacet
facet normal -0.0 -0.0 1.0
  outer loop
    vertex 2155.6734150051507 632.0099989901784 20.00000000000002
    vertex 2155.4299090038535 620.0297313573014 20.00000000000002
    vertex 2156.685471812013 622.8948173925144 20.00000000000002
  endloop
endfacet
facet normal -0.0 -0.0 1.0
  outer loop
    vertex 2155.6734150051507 632.0099989901784 20.00000000000002
    vertex 2156.685471812013 622.8948173925144 20.00000000000002
    vertex 2156.8115197934767 629.0962602501406 20.00000000000002
  endloop
endfacet
facet normal -0.0 -0.0 1.0
  outer loop
    vertex 2156.8115197934767 629.0962602501406 20.00000000000002
    vertex 2156.685471812013 622.8948173925144 20.00000000000002
    vertex 2157.156713523171 625.9872415555396 20.00000000000002
  endloop
endfacet
facet normal -0.8204752794560148 -0.5716820058402876 6.905607702067594e-15
  outer loop
    vertex 2143.448125358556 614.3058036181045 0.0
    vertex 2144.891946399633 612.2336385681997 0.0
    vertex 2144.891946399633 612.2336385681998 20.00000000000002
  endloop
endfacet
facet normal -0.7213301572832045 -0.6925913688415324 0.0
  outer loop
    vertex 2153.8199591187085 634.5298912956963 39.99999999999999
    vertex 2155.6734150051507 632.0099989901784 20.00000000000002
    vertex 2155.6734150051507 632.0099989901784 39.99999999999999
  endloop
endfacet
facet normal -0.876007264930814 -0.4822979077172473 0.0
  outer loop
    vertex 2155.6734150051507 632.0099989901784 20.00000000000002
    vertex 2153.8199591187085 634.5298912956963 39.99999999999999
    vertex 2153.8199591187085 634.5298912956963 20.00000000000002
  endloop
endfacet
facet normal -0.9059185118519619 0.13804917022696042 -0.4003174696207682
  outer loop
    vertex 2131.729910711293 630.12827134507 20.00000000000002
    vertex 2140.372997439433 628.8503417091209 0.0
    vertex 2131.1793369016586 626.5152470475002 20.00000000000002
  endloop
endfacet
facet normal -0.5174955914711628 -0.8556858727406405 0.0
  outer loop
    vertex 2151.3774620898307 636.4842106703954 39.99999999999999
    vertex 2148.5123760546194 637.7397734785549 20.00000000000002
    vertex 2151.3774620898307 636.4842106703954 20.00000000000002
  endloop
endfacet
facet normal -0.27839455630231136 -0.9604667985002081 0.0
  outer loop
    vertex 2148.5123760546194 637.7397734785549 20.00000000000002
    vertex 2151.3774620898307 636.4842106703954 39.99999999999999
    vertex 2148.5123760546194 637.7397734785549 39.99999999999999
  endloop
endfacet
facet normal 0.2391366412170265 -0.9709859251438402 0.0
  outer loop
    vertex 2142.3109331969927 637.8658214600201 39.99999999999999
    vertex 2139.3971944569553 636.7277166716934 20.00000000000002
    vertex 2142.3109331969927 637.8658214600201 20.00000000000002
  endloop
endfacet
facet normal 0.4822979077172546 -0.87600726493081 0.0
  outer loop
    vertex 2139.3971944569553 636.7277166716934 20.00000000000002
    vertex 2142.3109331969927 637.8658214600201 39.99999999999999
    vertex 2139.3971944569553 636.7277166716934 39.99999999999999
  endloop
endfacet
facet normal 0.4822979077172546 -0.87600726493081 0.0
  outer loop
    vertex 2139.3971944569553 636.7277166716934 39.99999999999999
    vertex 2136.877302151437 634.8742607852511 20.00000000000002
    vertex 2139.3971944569553 636.7277166716934 20.00000000000002
  endloop
endfacet
facet normal 0.6925913688415354 -0.7213301572832015 0.0
  outer loop
    vertex 2136.877302151437 634.8742607852511 20.00000000000002
    vertex 2139.3971944569553 636.7277166716934 39.99999999999999
    vertex 2136.877302151437 634.8742607852511 39.99999999999999
  endloop
endfacet
facet normal 0.6925913688415354 -0.7213301572832015 0.0
  outer loop
    vertex 2136.877302151437 634.8742607852511 20.00000000000002
    vertex 2134.9229827767376 632.4317637563737 39.99999999999999
    vertex 2134.9229827767376 632.4317637563737 20.00000000000002
  endloop
endfacet
facet normal 0.8556858727406387 -0.5174955914711655 0.0
  outer loop
    vertex 2134.9229827767376 632.4317637563737 39.99999999999999
    vertex 2136.877302151437 634.8742607852511 20.00000000000002
    vertex 2136.877302151437 634.8742607852511 39.99999999999999
  endloop
endfacet
facet normal -0.020321392190190857 -0.9997934991884337 0.0
  outer loop
    vertex 2145.419951891594 638.2110151897132 39.99999999999999
    vertex 2142.3109331969927 637.8658214600201 20.00000000000002
    vertex 2145.419951891594 638.2110151897132 20.00000000000002
  endloop
endfacet
facet normal 0.2391366412170265 -0.9709859251438402 0.0
  outer loop
    vertex 2142.3109331969927 637.8658214600201 20.00000000000002
    vertex 2145.419951891594 638.2110151897132 39.99999999999999
    vertex 2142.3109331969927 637.8658214600201 39.99999999999999
  endloop
endfacet
facet normal 0.8556858727406387 -0.5174955914711655 0.0
  outer loop
    vertex 2134.9229827767376 632.4317637563737 20.00000000000002
    vertex 2133.667419968579 629.566677721161 39.99999999999999
    vertex 2133.667419968579 629.566677721161 20.00000000000002
  endloop
endfacet
facet normal 0.9604667985002036 -0.27839455630232696 0.0
  outer loop
    vertex 2133.667419968579 629.566677721161 39.99999999999999
    vertex 2134.9229827767376 632.4317637563737 20.00000000000002
    vertex 2134.9229827767376 632.4317637563737 39.99999999999999
  endloop
endfacet
facet normal 0.9604667985002036 -0.27839455630232696 0.0
  outer loop
    vertex 2133.667419968579 629.566677721161 20.00000000000002
    vertex 2133.19617825742 626.4742535581356 39.99999999999999
    vertex 2133.19617825742 626.4742535581356 20.00000000000002
  endloop
endfacet
facet normal 0.9997934991884335 -0.02032139219019172 0.0
  outer loop
    vertex 2133.19617825742 626.4742535581356 39.99999999999999
    vertex 2133.667419968579 629.566677721161 20.00000000000002
    vertex 2133.667419968579 629.566677721161 39.99999999999999
  endloop
endfacet
facet normal -0.8440133355726044 0.36987083135074117 -0.3883774677958521
  outer loop
    vertex 2133.196843671927 633.4756858374346 20.00000000000002
    vertex 2140.372997439433 628.8503417091209 0.0
    vertex 2131.729910711293 630.12827134507 20.00000000000002
  endloop
endfacet
facet normal 0.9997934991884335 -0.02032139219019172 0.0
  outer loop
    vertex 2133.19617825742 626.4742535581356 20.00000000000002
    vertex 2133.5413719871135 623.3652348635347 39.99999999999999
    vertex 2133.5413719871135 623.3652348635347 20.00000000000002
  endloop
endfacet
facet normal 0.9709859251438314 0.2391366412170615 0.0
  outer loop
    vertex 2133.5413719871135 623.3652348635347 39.99999999999999
    vertex 2133.19617825742 626.4742535581356 20.00000000000002
    vertex 2133.19617825742 626.4742535581356 39.99999999999999
  endloop
endfacet
facet normal 0.9709859251438314 0.2391366412170615 0.0
  outer loop
    vertex 2133.5413719871135 623.3652348635347 20.00000000000002
    vertex 2134.679476775442 620.4514961234971 39.99999999999999
    vertex 2134.679476775442 620.4514961234971 20.00000000000002
  endloop
endfacet
facet normal 0.876007264930814 0.4822979077172473 0.0
  outer loop
    vertex 2134.679476775442 620.4514961234971 39.99999999999999
    vertex 2133.5413719871135 623.3652348635347 20.00000000000002
    vertex 2133.5413719871135 623.3652348635347 39.99999999999999
  endloop
endfacet
facet normal 0.7213301572832045 0.6925913688415324 0.0
  outer loop
    vertex 2136.5329326618826 617.9316038179791 39.99999999999999
    vertex 2138.97542969076 615.97728444328 20.00000000000002
    vertex 2136.5329326618826 617.9316038179791 20.00000000000002
  endloop
endfacet
facet normal 0.5174955914711628 0.8556858727406405 0.0
  outer loop
    vertex 2138.97542969076 615.97728444328 20.00000000000002
    vertex 2136.5329326618826 617.9316038179791 39.99999999999999
    vertex 2138.97542969076 615.97728444328 39.99999999999999
  endloop
endfacet
facet normal 0.5174955914711628 0.8556858727406405 0.0
  outer loop
    vertex 2138.97542969076 615.97728444328 39.99999999999999
    vertex 2141.8405157259726 614.7217216351205 20.00000000000002
    vertex 2138.97542969076 615.97728444328 20.00000000000002
  endloop
endfacet
facet normal 0.27839455630231136 0.9604667985002081 0.0
  outer loop
    vertex 2141.8405157259726 614.7217216351205 20.00000000000002
    vertex 2138.97542969076 615.97728444328 39.99999999999999
    vertex 2141.8405157259726 614.7217216351205 39.99999999999999
  endloop
endfacet
facet normal 0.27839455630231136 0.9604667985002081 0.0
  outer loop
    vertex 2141.8405157259726 614.7217216351205 39.99999999999999
    vertex 2144.932939888998 614.2504799239622 20.00000000000002
    vertex 2141.8405157259726 614.7217216351205 20.00000000000002
  endloop
endfacet
facet normal 0.020321392190190857 0.9997934991884337 0.0
  outer loop
    vertex 2144.932939888998 614.2504799239622 20.00000000000002
    vertex 2141.8405157259726 614.7217216351205 39.99999999999999
    vertex 2144.932939888998 614.2504799239622 39.99999999999999
  endloop
endfacet
facet normal 0.876007264930814 0.4822979077172473 0.0
  outer loop
    vertex 2134.679476775442 620.4514961234971 20.00000000000002
    vertex 2136.5329326618826 617.9316038179791 39.99999999999999
    vertex 2136.5329326618826 617.9316038179791 20.00000000000002
  endloop
endfacet
facet normal 0.7213301572832045 0.6925913688415324 0.0
  outer loop
    vertex 2136.5329326618826 617.9316038179791 39.99999999999999
    vertex 2134.679476775442 620.4514961234971 20.00000000000002
    vertex 2134.679476775442 620.4514961234971 39.99999999999999
  endloop
endfacet
facet normal -0.876007264930814 -0.4822979077172473 0.0
  outer loop
    vertex 2155.6734150051507 632.0099989901784 39.99999999999999
    vertex 2156.8115197934767 629.0962602501406 20.00000000000002
    vertex 2156.8115197934767 629.0962602501406 39.99999999999999
  endloop
endfacet
facet normal -0.9709859251438314 -0.2391366412170615 0.0
  outer loop
    vertex 2156.8115197934767 629.0962602501406 20.00000000000002
    vertex 2155.6734150051507 632.0099989901784 39.99999999999999
    vertex 2155.6734150051507 632.0099989901784 20.00000000000002
  endloop
endfacet
facet normal 0.020321392190190857 0.9997934991884337 0.0
  outer loop
    vertex 2144.932939888998 614.2504799239622 39.99999999999999
    vertex 2148.0419585835994 614.595673653655 20.00000000000002
    vertex 2144.932939888998 614.2504799239622 20.00000000000002
  endloop
endfacet
facet normal -0.2391366412170265 0.9709859251438402 0.0
  outer loop
    vertex 2148.0419585835994 614.595673653655 20.00000000000002
    vertex 2144.932939888998 614.2504799239622 39.99999999999999
    vertex 2148.0419585835994 614.595673653655 39.99999999999999
  endloop
endfacet
facet normal -0.2391366412170265 0.9709859251438402 0.0
  outer loop
    vertex 2148.0419585835994 614.595673653655 39.99999999999999
    vertex 2150.955697323637 615.7337784419825 20.00000000000002
    vertex 2148.0419585835994 614.595673653655 20.00000000000002
  endloop
endfacet
facet normal -0.4822979077172546 0.87600726493081 0.0
  outer loop
    vertex 2150.955697323637 615.7337784419825 20.00000000000002
    vertex 2148.0419585835994 614.595673653655 39.99999999999999
    vertex 2150.955697323637 615.7337784419825 39.99999999999999
  endloop
endfacet
facet normal -0.9604667985002036 0.27839455630232696 0.0
  outer loop
    vertex 2156.685471812013 622.8948173925144 39.99999999999999
    vertex 2155.4299090038535 620.0297313573014 20.00000000000002
    vertex 2155.4299090038535 620.0297313573014 39.99999999999999
  endloop
endfacet
facet normal -0.8556858727406387 0.5174955914711655 0.0
  outer loop
    vertex 2155.4299090038535 620.0297313573014 20.00000000000002
    vertex 2156.685471812013 622.8948173925144 39.99999999999999
    vertex 2156.685471812013 622.8948173925144 20.00000000000002
  endloop
endfacet
facet normal -0.9997934991884335 0.02032139219019172 0.0
  outer loop
    vertex 2157.156713523171 625.9872415555396 39.99999999999999
    vertex 2156.685471812013 622.8948173925144 20.00000000000002
    vertex 2156.685471812013 622.8948173925144 39.99999999999999
  endloop
endfacet
facet normal -0.9604667985002036 0.27839455630232696 0.0
  outer loop
    vertex 2156.685471812013 622.8948173925144 20.00000000000002
    vertex 2157.156713523171 625.9872415555396 39.99999999999999
    vertex 2157.156713523171 625.9872415555396 20.00000000000002
  endloop
endfacet
facet normal -0.8556858727406387 0.5174955914711655 0.0
  outer loop
    vertex 2155.4299090038535 620.0297313573014 39.99999999999999
    vertex 2153.4755896291563 617.587234328424 20.00000000000002
    vertex 2153.4755896291563 617.587234328424 39.99999999999999
  endloop
endfacet
facet normal -0.6925913688415354 0.7213301572832015 0.0
  outer loop
    vertex 2153.4755896291563 617.587234328424 20.00000000000002
    vertex 2155.4299090038535 620.0297313573014 39.99999999999999
    vertex 2155.4299090038535 620.0297313573014 20.00000000000002
  endloop
endfacet
facet normal -0.9709859251438314 -0.2391366412170615 0.0
  outer loop
    vertex 2156.8115197934767 629.0962602501406 39.99999999999999
    vertex 2157.156713523171 625.9872415555396 20.00000000000002
    vertex 2157.156713523171 625.9872415555396 39.99999999999999
  endloop
endfacet
facet normal -0.9997934991884335 0.02032139219019172 0.0
  outer loop
    vertex 2157.156713523171 625.9872415555396 20.00000000000002
    vertex 2156.8115197934767 629.0962602501406 39.99999999999999
    vertex 2156.8115197934767 629.0962602501406 20.00000000000002
  endloop
endfacet
facet normal 0.39883099291943264 0.9100979264420376 -0.11249712606463874
  outer loop
    vertex 2152.421384170894 638.2103497752059 20.00000000000002
    vertex 2146.9047664220348 638.155691495571 0.0
    vertex 2149.0739696785286 639.6772827358404 20.00000000000002
  endloop
endfacet
facet normal -0.4822979077172546 0.87600726493081 0.0
  outer loop
    vertex 2150.955697323637 615.7337784419825 39.99999999999999
    vertex 2153.4755896291563 617.587234328424 20.00000000000002
    vertex 2150.955697323637 615.7337784419825 20.00000000000002
  endloop
endfacet
facet normal -0.6925913688415354 0.7213301572832015 0.0
  outer loop
    vertex 2153.4755896291563 617.587234328424 20.00000000000002
    vertex 2150.955697323637 615.7337784419825 39.99999999999999
    vertex 2153.4755896291563 617.587234328424 39.99999999999999
  endloop
endfacet
facet normal 0.0 0.0 1.0
  outer loop
    vertex 2132.9123441812662 619.4785768487958 39.99999999999999
    vertex 2133.5413719871135 623.3652348635347 39.99999999999999
    vertex 2133.19617825742 626.4742535581356 39.99999999999999
  endloop
endfacet
facet normal 0.0 0.0 1.0
  outer loop
    vertex 2133.5413719871135 623.3652348635347 39.99999999999999
    vertex 2132.9123441812662 619.4785768487958 39.99999999999999
    vertex 2135.0778236883298 616.534468393056 39.99999999999999
  endloop
endfacet
facet normal 0.0 0.0 1.0
  outer loop
    vertex 2133.5413719871135 623.3652348635347 39.99999999999999
    vertex 2135.0778236883298 616.534468393056 39.99999999999999
    vertex 2134.679476775442 620.4514961234971 39.99999999999999
  endloop
endfacet
facet normal 0.0 0.0 1.0
  outer loop
    vertex 2134.679476775442 620.4514961234971 39.99999999999999
    vertex 2135.0778236883298 616.534468393056 39.99999999999999
    vertex 2136.5329326618826 617.9316038179791 39.99999999999999
  endloop
endfacet
facet normal 0.0 0.0 1.0
  outer loop
    vertex 2136.5329326618826 617.9316038179791 39.99999999999999
    vertex 2135.0778236883298 616.534468393056 39.99999999999999
    vertex 2137.9315076096996 614.2511453384689 39.99999999999999
  endloop
endfacet
facet normal 0.0 0.0 1.0
  outer loop
    vertex 2136.5329326618826 617.9316038179791 39.99999999999999
    vertex 2137.9315076096996 614.2511453384689 39.99999999999999
    vertex 2138.97542969076 615.97728444328 39.99999999999999
  endloop
endfacet
facet normal 0.0 0.0 1.0
  outer loop
    vertex 2138.97542969076 615.97728444328 39.99999999999999
    vertex 2137.9315076096996 614.2511453384689 39.99999999999999
    vertex 2141.2789221020644 612.784212377835 39.99999999999999
  endloop
endfacet
facet normal 0.0 0.0 1.0
  outer loop
    vertex 2138.97542969076 615.97728444328 39.99999999999999
    vertex 2141.2789221020644 612.784212377835 39.99999999999999
    vertex 2141.8405157259726 614.7217216351205 39.99999999999999
  endloop
endfacet
facet normal 0.0 0.0 1.0
  outer loop
    vertex 2141.8405157259726 614.7217216351205 39.99999999999999
    vertex 2141.2789221020644 612.784212377835 39.99999999999999
    vertex 2144.891946399633 612.2336385681997 39.99999999999999
  endloop
endfacet
facet normal 0.0 0.0 1.0
  outer loop
    vertex 2141.8405157259726 614.7217216351205 39.99999999999999
    vertex 2144.891946399633 612.2336385681997 39.99999999999999
    vertex 2144.932939888998 614.2504799239622 39.99999999999999
  endloop
endfacet
facet normal 0.0 0.0 1.0
  outer loop
    vertex 2144.932939888998 614.2504799239622 39.99999999999999
    vertex 2144.891946399633 612.2336385681997 39.99999999999999
    vertex 2148.5243588673347 612.6369446048237 39.99999999999999
  endloop
endfacet
facet normal 0.0 0.0 1.0
  outer loop
    vertex 2144.932939888998 614.2504799239622 39.99999999999999
    vertex 2148.5243588673347 612.6369446048237 39.99999999999999
    vertex 2148.0419585835994 614.595673653655 39.99999999999999
  endloop
endfacet
facet normal 0.0 0.0 1.0
  outer loop
    vertex 2148.0419585835994 614.595673653655 39.99999999999999
    vertex 2148.5243588673347 612.6369446048237 39.99999999999999
    vertex 2150.955697323637 615.7337784419825 39.99999999999999
  endloop
endfacet
facet normal 0.0 0.0 1.0
  outer loop
    vertex 2150.955697323637 615.7337784419825 39.99999999999999
    vertex 2148.5243588673347 612.6369446048237 39.99999999999999
    vertex 2151.928616598337 613.9666458478065 39.99999999999999
  endloop
endfacet
facet normal 0.0 0.0 1.0
  outer loop
    vertex 2150.955697323637 615.7337784419825 39.99999999999999
    vertex 2151.928616598337 613.9666458478065 39.99999999999999
    vertex 2153.4755896291563 617.587234328424 39.99999999999999
  endloop
endfacet
facet normal 0.0 0.0 1.0
  outer loop
    vertex 2153.4755896291563 617.587234328424 39.99999999999999
    vertex 2151.928616598337 613.9666458478065 39.99999999999999
    vertex 2154.8727250540774 616.1321253548728 39.99999999999999
  endloop
endfacet
facet normal 0.0 0.0 1.0
  outer loop
    vertex 2153.4755896291563 617.587234328424 39.99999999999999
    vertex 2154.8727250540774 616.1321253548728 39.99999999999999
    vertex 2155.4299090038535 620.0297313573014 39.99999999999999
  endloop
endfacet
facet normal 0.0 0.0 1.0
  outer loop
    vertex 2155.4299090038535 620.0297313573014 39.99999999999999
    vertex 2154.8727250540774 616.1321253548728 39.99999999999999
    vertex 2157.156048108664 618.9858092762415 39.99999999999999
  endloop
endfacet
facet normal 0.0 0.0 1.0
  outer loop
    vertex 2155.4299090038535 620.0297313573014 39.99999999999999
    vertex 2157.156048108664 618.9858092762415 39.99999999999999
    vertex 2156.685471812013 622.8948173925144 39.99999999999999
  endloop
endfacet
facet normal 0.0 0.0 1.0
  outer loop
    vertex 2156.685471812013 622.8948173925144 39.99999999999999
    vertex 2157.156048108664 618.9858092762415 39.99999999999999
    vertex 2157.156713523171 625.9872415555396 39.99999999999999
  endloop
endfacet
facet normal 0.0 0.0 1.0
  outer loop
    vertex 2157.156713523171 625.9872415555396 39.99999999999999
    vertex 2157.156048108664 618.9858092762415 39.99999999999999
    vertex 2158.6229810692985 622.3332237686056 39.99999999999999
  endloop
endfacet
facet normal 0.0 0.0 1.0
  outer loop
    vertex 2157.156713523171 625.9872415555396 39.99999999999999
    vertex 2158.6229810692985 622.3332237686056 39.99999999999999
    vertex 2157.4405475993267 632.9829182648791 39.99999999999999
  endloop
endfacet
facet normal 0.0 0.0 1.0
  outer loop
    vertex 2157.4405475993267 632.9829182648791 39.99999999999999
    vertex 2158.6229810692985 622.3332237686056 39.99999999999999
    vertex 2158.7702488423092 629.5786605338757 39.99999999999999
  endloop
endfacet
facet normal 0.0 0.0 1.0
  outer loop
    vertex 2158.7702488423092 629.5786605338757 39.99999999999999
    vertex 2158.6229810692985 622.3332237686056 39.99999999999999
    vertex 2159.173554878934 625.9462480661748 39.99999999999999
  endloop
endfacet
facet normal 0.0 0.0 1.0
  outer loop
    vertex 2131.582642938282 622.8828345797994 39.99999999999999
    vertex 2131.729910711293 630.12827134507 39.99999999999999
    vertex 2131.1793369016586 626.5152470475003 39.99999999999999
  endloop
endfacet
facet normal 0.0 0.0 1.0
  outer loop
    vertex 2131.729910711293 630.12827134507 39.99999999999999
    vertex 2131.582642938282 622.8828345797994 39.99999999999999
    vertex 2132.9123441812662 619.4785768487958 39.99999999999999
  endloop
endfacet
facet normal 0.0 0.0 1.0
  outer loop
    vertex 2131.729910711293 630.12827134507 39.99999999999999
    vertex 2132.9123441812662 619.4785768487958 39.99999999999999
    vertex 2133.1968436719267 633.4756858374345 39.99999999999999
  endloop
endfacet
facet normal 0.0 0.0 1.0
  outer loop
    vertex 2133.1968436719267 633.4756858374345 39.99999999999999
    vertex 2132.9123441812662 619.4785768487958 39.99999999999999
    vertex 2133.19617825742 626.4742535581356 39.99999999999999
  endloop
endfacet
facet normal 0.0 0.0 1.0
  outer loop
    vertex 2133.1968436719267 633.4756858374345 39.99999999999999
    vertex 2133.19617825742 626.4742535581356 39.99999999999999
    vertex 2133.667419968579 629.566677721161 39.99999999999999
  endloop
endfacet
facet normal 0.0 0.0 1.0
  outer loop
    vertex 2133.1968436719267 633.4756858374345 39.99999999999999
    vertex 2133.667419968579 629.566677721161 39.99999999999999
    vertex 2135.4801667265133 636.3293697588026 39.99999999999999
  endloop
endfacet
facet normal 0.0 0.0 1.0
  outer loop
    vertex 2135.4801667265133 636.3293697588026 39.99999999999999
    vertex 2133.667419968579 629.566677721161 39.99999999999999
    vertex 2134.9229827767376 632.4317637563737 39.99999999999999
  endloop
endfacet
facet normal 0.0 0.0 1.0
  outer loop
    vertex 2135.4801667265133 636.3293697588026 39.99999999999999
    vertex 2134.9229827767376 632.4317637563737 39.99999999999999
    vertex 2136.877302151437 634.8742607852511 39.99999999999999
  endloop
endfacet
facet normal 0.0 0.0 1.0
  outer loop
    vertex 2135.4801667265133 636.3293697588026 39.99999999999999
    vertex 2136.877302151437 634.8742607852511 39.99999999999999
    vertex 2138.4242751822558 638.4948492658689 39.99999999999999
  endloop
endfacet
facet normal 0.0 0.0 1.0
  outer loop
    vertex 2138.4242751822558 638.4948492658689 39.99999999999999
    vertex 2136.877302151437 634.8742607852511 39.99999999999999
    vertex 2139.3971944569553 636.7277166716934 39.99999999999999
  endloop
endfacet
facet normal 0.0 0.0 1.0
  outer loop
    vertex 2138.4242751822558 638.4948492658689 39.99999999999999
    vertex 2139.3971944569553 636.7277166716934 39.99999999999999
    vertex 2141.8285329132573 639.8245505088513 39.99999999999999
  endloop
endfacet
facet normal 0.0 0.0 1.0
  outer loop
    vertex 2141.8285329132573 639.8245505088513 39.99999999999999
    vertex 2139.3971944569553 636.7277166716934 39.99999999999999
    vertex 2142.3109331969927 637.8658214600201 39.99999999999999
  endloop
endfacet
facet normal 0.0 0.0 1.0
  outer loop
    vertex 2141.8285329132573 639.8245505088513 39.99999999999999
    vertex 2142.3109331969927 637.8658214600201 39.99999999999999
    vertex 2145.460945380958 640.2278565454758 39.99999999999999
  endloop
endfacet
facet normal 0.0 0.0 1.0
  outer loop
    vertex 2145.460945380958 640.2278565454758 39.99999999999999
    vertex 2142.3109331969927 637.8658214600201 39.99999999999999
    vertex 2145.419951891594 638.2110151897132 39.99999999999999
  endloop
endfacet
facet normal 0.0 0.0 1.0
  outer loop
    vertex 2145.460945380958 640.2278565454758 39.99999999999999
    vertex 2145.419951891594 638.2110151897132 39.99999999999999
    vertex 2148.5123760546194 637.7397734785549 39.99999999999999
  endloop
endfacet
facet normal 0.0 0.0 1.0
  outer loop
    vertex 2145.460945380958 640.2278565454758 39.99999999999999
    vertex 2148.5123760546194 637.7397734785549 39.99999999999999
    vertex 2149.073969678529 639.6772827358405 39.99999999999999
  endloop
endfacet
facet normal 0.0 0.0 1.0
  outer loop
    vertex 2149.073969678529 639.6772827358405 39.99999999999999
    vertex 2148.5123760546194 637.7397734785549 39.99999999999999
    vertex 2151.3774620898307 636.4842106703954 39.99999999999999
  endloop
endfacet
facet normal 0.0 0.0 1.0
  outer loop
    vertex 2149.073969678529 639.6772827358405 39.99999999999999
    vertex 2151.3774620898307 636.4842106703954 39.99999999999999
    vertex 2152.421384170894 638.2103497752063 39.99999999999999
  endloop
endfacet
facet normal 0.0 0.0 1.0
  outer loop
    vertex 2152.421384170894 638.2103497752063 39.99999999999999
    vertex 2151.3774620898307 636.4842106703954 39.99999999999999
    vertex 2153.8199591187085 634.5298912956963 39.99999999999999
  endloop
endfacet
facet normal 0.0 0.0 1.0
  outer loop
    vertex 2152.421384170894 638.2103497752063 39.99999999999999
    vertex 2153.8199591187085 634.5298912956963 39.99999999999999
    vertex 2155.275068092264 635.9270267206188 39.99999999999999
  endloop
endfacet
facet normal 0.0 0.0 1.0
  outer loop
    vertex 2155.275068092264 635.9270267206188 39.99999999999999
    vertex 2153.8199591187085 634.5298912956963 39.99999999999999
    vertex 2155.6734150051507 632.0099989901784 39.99999999999999
  endloop
endfacet
facet normal 0.0 0.0 1.0
  outer loop
    vertex 2155.275068092264 635.9270267206188 39.99999999999999
    vertex 2155.6734150051507 632.0099989901784 39.99999999999999
    vertex 2157.4405475993267 632.9829182648791 39.99999999999999
  endloop
endfacet
facet normal 0.0 0.0 1.0
  outer loop
    vertex 2157.4405475993267 632.9829182648791 39.99999999999999
    vertex 2155.6734150051507 632.0099989901784 39.99999999999999
    vertex 2156.8115197934767 629.0962602501406 39.99999999999999
  endloop
endfacet
facet normal 0.0 0.0 1.0
  outer loop
    vertex 2157.4405475993267 632.9829182648791 39.99999999999999
    vertex 2156.8115197934767 629.0962602501406 39.99999999999999
    vertex 2157.156713523171 625.9872415555396 39.99999999999999
  endloop
endfacet
facet normal 0.8760072649308118 0.48229790771725156 -1.1013628379288227e-14
  outer loop
    vertex 2157.440547599326 632.9829182648797 20.00000000000002
    vertex 2155.275068092264 635.9270267206188 39.99999999999999
    vertex 2157.4405475993267 632.9829182648791 39.99999999999999
  endloop
endfacet
facet normal 0.7213301572832045 0.6925913688415323 -7.422567443860756e-15
  outer loop
    vertex 2155.275068092264 635.9270267206188 39.99999999999999
    vertex 2157.440547599326 632.9829182648797 20.00000000000002
    vertex 2155.275068092263 635.9270267206183 20.00000000000002
  endloop
endfacet
facet normal 0.8760072649308118 0.48229790771725156 -1.1013628379288227e-14
  outer loop
    vertex 2157.440547599326 632.9829182648797 20.00000000000002
    vertex 2158.7702488423092 629.5786605338757 39.99999999999999
    vertex 2158.7702488423097 629.5786605338745 20.00000000000002
  endloop
endfacet
facet normal 0.9709859251438367 0.2391366412170404 -9.787202600724855e-15
  outer loop
    vertex 2158.7702488423092 629.5786605338757 39.99999999999999
    vertex 2157.440547599326 632.9829182648797 20.00000000000002
    vertex 2157.4405475993267 632.9829182648791 39.99999999999999
  endloop
endfacet
facet normal 0.9709859251438392 0.23913664121703052 -9.787202600724211e-15
  outer loop
    vertex 2158.7702488423097 629.5786605338745 20.00000000000002
    vertex 2159.173554878934 625.9462480661748 39.99999999999999
    vertex 2159.173554878934 625.9462480661748 20.00000000000002
  endloop
endfacet
facet normal 0.9997934991884341 -0.020321392190171737 -6.021905952049349e-16
  outer loop
    vertex 2159.173554878934 625.9462480661748 39.99999999999999
    vertex 2158.7702488423097 629.5786605338745 20.00000000000002
    vertex 2158.7702488423092 629.5786605338757 39.99999999999999
  endloop
endfacet
facet normal 0.5174955914711713 0.8556858727406352 -1.290177274837509e-14
  outer loop
    vertex 2152.421384170894 638.2103497752063 39.99999999999999
    vertex 2155.275068092263 635.9270267206183 20.00000000000002
    vertex 2152.421384170894 638.2103497752059 20.00000000000002
  endloop
endfacet
facet normal 0.7213301572832035 0.6925913688415334 -7.422567443860796e-15
  outer loop
    vertex 2155.275068092263 635.9270267206183 20.00000000000002
    vertex 2152.421384170894 638.2103497752063 39.99999999999999
    vertex 2155.275068092264 635.9270267206188 39.99999999999999
  endloop
endfacet
facet normal -0.2783945563023086 -0.9604667985002089 -1.2584864741743687e-14
  outer loop
    vertex 2141.2789221020644 612.784212377835 39.99999999999999
    vertex 2137.9315076096996 614.2511453384691 20.00000000000002
    vertex 2141.278922102065 612.784212377835 20.00000000000002
  endloop
endfacet
facet normal -0.5174955914711724 -0.8556858727406347 -1.2901772748375076e-14
  outer loop
    vertex 2137.9315076096996 614.2511453384691 20.00000000000002
    vertex 2141.2789221020644 612.784212377835 39.99999999999999
    vertex 2137.9315076096996 614.2511453384689 39.99999999999999
  endloop
endfacet
facet normal -0.69259136884156 0.7213301572831777 -1.673500805797652e-15
  outer loop
    vertex 2135.4801667265133 636.3293697588026 39.99999999999999
    vertex 2138.4242751822553 638.4948492658684 20.00000000000002
    vertex 2135.4801667265133 636.3293697588024 20.00000000000002
  endloop
endfacet
facet normal -0.4822979077172432 0.8760072649308164 -8.543122268531424e-15
  outer loop
    vertex 2138.4242751822553 638.4948492658684 20.00000000000002
    vertex 2135.4801667265133 636.3293697588026 39.99999999999999
    vertex 2138.4242751822558 638.4948492658689 39.99999999999999
  endloop
endfacet
facet normal -0.8760072649308149 -0.48229790771724595 -1.1013628379288575e-14
  outer loop
    vertex 2132.9123441812662 619.4785768487958 39.99999999999999
    vertex 2135.0778236883298 616.5344683930565 20.00000000000002
    vertex 2135.0778236883298 616.534468393056 39.99999999999999
  endloop
endfacet
facet normal -0.7213301572832048 -0.6925913688415318 -7.422567443860739e-15
  outer loop
    vertex 2135.0778236883298 616.5344683930565 20.00000000000002
    vertex 2132.9123441812662 619.4785768487958 39.99999999999999
    vertex 2132.9123441812667 619.4785768487951 20.00000000000002
  endloop
endfacet
facet normal 0.9604667985002051 -0.2783945563023211 6.401909293386533e-16
  outer loop
    vertex 2158.6229810692985 622.3332237686056 20.00000000000002
    vertex 2157.156048108664 618.9858092762415 39.99999999999999
    vertex 2157.156048108664 618.9858092762411 20.00000000000002
  endloop
endfacet
facet normal 0.8556858727406377 -0.5174955914711674 9.711755388177643e-16
  outer loop
    vertex 2157.156048108664 618.9858092762415 39.99999999999999
    vertex 2158.6229810692985 622.3332237686056 20.00000000000002
    vertex 2158.6229810692985 622.3332237686056 39.99999999999999
  endloop
endfacet
facet normal -0.8760072649308149 -0.48229790771724595 -1.1013628379288575e-14
  outer loop
    vertex 2132.9123441812662 619.4785768487958 39.99999999999999
    vertex 2131.582642938282 622.8828345798006 20.00000000000002
    vertex 2132.9123441812667 619.4785768487951 20.00000000000002
  endloop
endfacet
facet normal -0.9709859251438392 -0.2391366412170305 -9.78720260072421e-15
  outer loop
    vertex 2131.582642938282 622.8828345798006 20.00000000000002
    vertex 2132.9123441812662 619.4785768487958 39.99999999999999
    vertex 2131.582642938282 622.8828345797994 39.99999999999999
  endloop
endfacet
facet normal -0.23913664121700945 0.9709859251438442 -1.124866738821362e-14
  outer loop
    vertex 2141.8285329132573 639.8245505088513 39.99999999999999
    vertex 2145.460945380958 640.2278565454756 20.00000000000002
    vertex 2141.8285329132577 639.8245505088512 20.00000000000002
  endloop
endfacet
facet normal 0.020321392190182346 0.9997934991884339 -9.987073598419432e-15
  outer loop
    vertex 2145.460945380958 640.2278565454756 20.00000000000002
    vertex 2141.8285329132573 639.8245505088513 39.99999999999999
    vertex 2145.460945380958 640.2278565454758 39.99999999999999
  endloop
endfacet
facet normal -0.8556858727406377 0.5174955914711673 9.711755388177643e-16
  outer loop
    vertex 2133.1968436719267 633.4756858374345 39.99999999999999
    vertex 2131.729910711293 630.12827134507 20.00000000000002
    vertex 2131.729910711293 630.12827134507 39.99999999999999
  endloop
endfacet
facet normal -0.9604667985002051 0.2783945563023211 6.401909293386533e-16
  outer loop
    vertex 2131.729910711293 630.12827134507 20.00000000000002
    vertex 2133.1968436719267 633.4756858374345 39.99999999999999
    vertex 2133.196843671927 633.4756858374346 20.00000000000002
  endloop
endfacet
facet normal -0.7332493397173186 0.5866960631486414 -0.34370501202339454
  outer loop
    vertex 2135.4801667265133 636.3293697588024 20.00000000000002
    vertex 2140.854522794653 631.3295796010918 0.0
    vertex 2133.196843671927 633.4756858374346 20.00000000000002
  endloop
endfacet
facet normal -0.9125984805561462 0.1772477376807722 -0.36843894036008373
  outer loop
    vertex 2133.196843671927 633.4756858374346 20.00000000000002
    vertex 2140.854522794653 631.3295796010918 0.0
    vertex 2140.372997439433 628.8503417091209 0.0
  endloop
endfacet
facet normal 0.9997934991884341 -0.020321392190171737 -6.021905952049349e-16
  outer loop
    vertex 2159.173554878934 625.9462480661748 20.00000000000002
    vertex 2158.6229810692985 622.3332237686056 39.99999999999999
    vertex 2158.6229810692985 622.3332237686056 20.00000000000002
  endloop
endfacet
facet normal 0.9604667985002051 -0.2783945563023211 6.401909293386533e-16
  outer loop
    vertex 2158.6229810692985 622.3332237686056 39.99999999999999
    vertex 2159.173554878934 625.9462480661748 20.00000000000002
    vertex 2159.173554878934 625.9462480661748 39.99999999999999
  endloop
endfacet
facet normal 0.6925913688415608 -0.7213301572831771 -1.6735008057976318e-15
  outer loop
    vertex 2154.8727250540774 616.1321253548729 20.00000000000002
    vertex 2157.156048108664 618.9858092762415 39.99999999999999
    vertex 2154.8727250540774 616.1321253548728 39.99999999999999
  endloop
endfacet
facet normal 0.8556858727406377 -0.5174955914711674 9.711755388177643e-16
  outer loop
    vertex 2157.156048108664 618.9858092762415 39.99999999999999
    vertex 2154.8727250540774 616.1321253548729 20.00000000000002
    vertex 2157.156048108664 618.9858092762411 20.00000000000002
  endloop
endfacet
facet normal -0.9997934991884342 0.020321392190172483 -6.021905952049302e-16
  outer loop
    vertex 2131.1793369016586 626.5152470475003 39.99999999999999
    vertex 2131.729910711293 630.12827134507 20.00000000000002
    vertex 2131.1793369016586 626.5152470475002 20.00000000000002
  endloop
endfacet
facet normal -0.9604667985002051 0.2783945563023211 6.401909293386533e-16
  outer loop
    vertex 2131.729910711293 630.12827134507 20.00000000000002
    vertex 2131.1793369016586 626.5152470475003 39.99999999999999
    vertex 2131.729910711293 630.12827134507 39.99999999999999
  endloop
endfacet
facet normal -0.4822979077172393 0.8760072649308185 -8.543122268531569e-15
  outer loop
    vertex 2138.4242751822558 638.4948492658689 39.99999999999999
    vertex 2141.8285329132577 639.8245505088512 20.00000000000002
    vertex 2138.4242751822553 638.4948492658684 20.00000000000002
  endloop
endfacet
facet normal -0.23913664121700692 0.9709859251438449 -1.1248667388213588e-14
  outer loop
    vertex 2141.8285329132577 639.8245505088512 20.00000000000002
    vertex 2138.4242751822558 638.4948492658689 39.99999999999999
    vertex 2141.8285329132573 639.8245505088513 39.99999999999999
  endloop
endfacet
facet normal -0.5174955914711716 -0.855685872740635 -1.2901772748375082e-14
  outer loop
    vertex 2137.9315076096996 614.2511453384689 39.99999999999999
    vertex 2135.0778236883298 616.5344683930565 20.00000000000002
    vertex 2137.9315076096996 614.2511453384691 20.00000000000002
  endloop
endfacet
facet normal -0.7213301572832048 -0.6925913688415318 -7.422567443860739e-15
  outer loop
    vertex 2135.0778236883298 616.5344683930565 20.00000000000002
    vertex 2137.9315076096996 614.2511453384689 39.99999999999999
    vertex 2135.0778236883298 616.534468393056 39.99999999999999
  endloop
endfacet
facet normal 0.69259136884156 -0.7213301572831777 -1.673500805797652e-15
  outer loop
    vertex 2154.8727250540774 616.1321253548728 39.99999999999999
    vertex 2151.928616598338 613.966645847807 20.00000000000002
    vertex 2154.8727250540774 616.1321253548729 20.00000000000002
  endloop
endfacet
facet normal 0.4822979077172444 -0.8760072649308159 -8.543122268531383e-15
  outer loop
    vertex 2151.928616598338 613.966645847807 20.00000000000002
    vertex 2154.8727250540774 616.1321253548728 39.99999999999999
    vertex 2151.928616598337 613.9666458478065 39.99999999999999
  endloop
endfacet
facet normal -0.69259136884156 0.7213301572831777 -1.673500805797652e-15
  outer loop
    vertex 2135.4801667265133 636.3293697588026 39.99999999999999
    vertex 2133.196843671927 633.4756858374346 20.00000000000002
    vertex 2133.1968436719267 633.4756858374345 39.99999999999999
  endloop
endfacet
facet normal -0.855685872740636 0.5174955914711697 9.71175538817763e-16
  outer loop
    vertex 2133.196843671927 633.4756858374346 20.00000000000002
    vertex 2135.4801667265133 636.3293697588026 39.99999999999999
    vertex 2135.4801667265133 636.3293697588024 20.00000000000002
  endloop
endfacet
facet normal 0.020321392190182315 0.999793499188434 -9.987073598419434e-15
  outer loop
    vertex 2145.460945380958 640.2278565454758 39.99999999999999
    vertex 2149.0739696785286 639.6772827358404 20.00000000000002
    vertex 2145.460945380958 640.2278565454756 20.00000000000002
  endloop
endfacet
facet normal 0.2783945563023061 0.9604667985002096 -1.258486474174364e-14
  outer loop
    vertex 2149.0739696785286 639.6772827358404 20.00000000000002
    vertex 2145.460945380958 640.2278565454758 39.99999999999999
    vertex 2149.073969678529 639.6772827358405 39.99999999999999
  endloop
endfacet
facet normal 0.2783945563023086 0.9604667985002089 -1.2584864741743687e-14
  outer loop
    vertex 2149.073969678529 639.6772827358405 39.99999999999999
    vertex 2152.421384170894 638.2103497752059 20.00000000000002
    vertex 2149.0739696785286 639.6772827358404 20.00000000000002
  endloop
endfacet
facet normal 0.5174955914711727 0.8556858727406343 -1.2901772748375068e-14
  outer loop
    vertex 2152.421384170894 638.2103497752059 20.00000000000002
    vertex 2149.073969678529 639.6772827358405 39.99999999999999
    vertex 2152.421384170894 638.2103497752063 39.99999999999999
  endloop
endfacet
facet normal 0.48229790771723813 -0.8760072649308192 -8.54312226853161e-15
  outer loop
    vertex 2151.928616598337 613.9666458478065 39.99999999999999
    vertex 2148.5243588673343 612.6369446048238 20.00000000000002
    vertex 2151.928616598338 613.966645847807 20.00000000000002
  endloop
endfacet
facet normal 0.23913664121700692 -0.9709859251438449 -1.1248667388213588e-14
  outer loop
    vertex 2148.5243588673343 612.6369446048238 20.00000000000002
    vertex 2151.928616598337 613.9666458478065 39.99999999999999
    vertex 2148.5243588673347 612.6369446048237 39.99999999999999
  endloop
endfacet
facet normal 0.23913664121700945 -0.9709859251438442 -1.124866738821362e-14
  outer loop
    vertex 2148.5243588673347 612.6369446048237 39.99999999999999
    vertex 2144.891946399633 612.2336385681998 20.00000000000002
    vertex 2148.5243588673343 612.6369446048238 20.00000000000002
  endloop
endfacet
facet normal -0.020321392190182346 -0.9997934991884339 -9.987073598419432e-15
  outer loop
    vertex 2144.891946399633 612.2336385681998 20.00000000000002
    vertex 2148.5243588673347 612.6369446048237 39.99999999999999
    vertex 2144.891946399633 612.2336385681997 39.99999999999999
  endloop
endfacet
facet normal -0.020321392190182315 -0.999793499188434 -9.987073598419434e-15
  outer loop
    vertex 2144.891946399633 612.2336385681997 39.99999999999999
    vertex 2141.278922102065 612.784212377835 20.00000000000002
    vertex 2144.891946399633 612.2336385681998 20.00000000000002
  endloop
endfacet
facet normal -0.2783945563023061 -0.9604667985002096 -1.258486474174364e-14
  outer loop
    vertex 2141.278922102065 612.784212377835 20.00000000000002
    vertex 2144.891946399633 612.2336385681997 39.99999999999999
    vertex 2141.2789221020644 612.784212377835 39.99999999999999
  endloop
endfacet
facet normal -0.9997934991884342 0.020321392190172483 -6.021905952049302e-16
  outer loop
    vertex 2131.1793369016586 626.5152470475003 39.99999999999999
    vertex 2131.582642938282 622.8828345798006 20.00000000000002
    vertex 2131.582642938282 622.8828345797994 39.99999999999999
  endloop
endfacet
facet normal -0.9709859251438392 -0.2391366412170305 -9.78720260072421e-15
  outer loop
    vertex 2131.582642938282 622.8828345798006 20.00000000000002
    vertex 2131.1793369016586 626.5152470475003 39.99999999999999
    vertex 2131.1793369016586 626.5152470475002 20.00000000000002
  endloop
endfacet
facet normal 0.8529894777792874 -0.5053641807147531 -0.13044537419289662
  outer loop
    vertex 2147.7061066774977 616.4182711188146 0.0
    vertex 2148.5243588673343 612.6369446048238 20.00000000000002
    vertex 2146.4187761291028 614.24542339017 0.0
  endloop
endfacet
facet normal 0.1506467783183676 0.9885876532621155 8.96787717373545e-15
  outer loop
    vertex 2149.0739696785286 639.6772827358404 20.00000000000002
    vertex 2145.460945380958 640.2278565454758 0.0
    vertex 2145.460945380958 640.2278565454756 20.00000000000002
  endloop
endfacet
facet normal 0.796567683682952 -0.6045493572174042 3.4063392024816256e-15
  outer loop
    vertex 2146.4187761291028 614.24542339017 0.0
    vertex 2144.891946399633 612.2336385681998 20.00000000000002
    vertex 2144.891946399633 612.2336385681997 0.0
  endloop
endfacet
facet normal 0.8133683968304659 0.5667301480374054 -0.13133465019916993
  outer loop
    vertex 2145.460945380958 640.2278565454758 0.0
    vertex 2149.0739696785286 639.6772827358404 20.00000000000002
    vertex 2146.9047664220348 638.155691495571 0.0
  endloop
endfacet
facet normal -0.5696491152272487 0.7744745546990636 -0.2751164292522348
  outer loop
    vertex 2138.4242751822553 638.4948492658684 20.00000000000002
    vertex 2141.615765884208 633.7376900950909 0.0
    vertex 2135.4801667265133 636.3293697588024 20.00000000000002
  endloop
endfacet
facet normal 0.0 0.0 1.0
  outer loop
    vertex 2150.1764458902953 619.2307475568372 5.000000000000022
    vertex 2140.177478394353 633.2307475568372 5.000000000000022
    vertex 2140.177478394353 619.2307475568372 5.000000000000022
  endloop
endfacet
facet normal 0.0 0.0 1.0
  outer loop
    vertex 2140.177478394353 633.2307475568372 5.000000000000022
    vertex 2150.1764458902953 619.2307475568372 5.000000000000022
    vertex 2150.1764458902953 633.2307475568372 5.000000000000022
  endloop
endfacet
facet normal -0.8871094467856377 0.39670936479547586 -0.23592055719510735
  outer loop
    vertex 2138.4242751822553 638.4948492658684 20.00000000000002
    vertex 2142.6467851030948 636.043223994861 0.0
    vertex 2141.615765884208 633.7376900950909 0.0
  endloop
endfacet
facet normal 0.10989212953966204 -0.9897534507123189 -0.09116921996099105
  outer loop
    vertex 2144.891946399633 612.2336385681998 20.00000000000002
    vertex 2146.4187761291028 614.24542339017 0.0
    vertex 2148.5243588673343 612.6369446048238 20.00000000000002
  endloop
endfacet
facet normal -0.0 1.0 -0.0
  outer loop
    vertex 2140.177478394353 619.2307475568372 20.00000000000002
    vertex 2150.1764458902953 619.2307475568372 5.000000000000022
    vertex 2140.177478394353 619.2307475568372 5.000000000000022
  endloop
endfacet
facet normal -0.0 1.0 -0.0
  outer loop
    vertex 2150.1764458902953 619.2307475568372 5.000000000000022
    vertex 2140.177478394353 619.2307475568372 20.00000000000002
    vertex 2150.1764458902953 619.2307475568372 20.00000000000002
  endloop
endfacet
facet normal 1.0 0.0 0.0
  outer loop
    vertex 2140.177478394353 633.2307475568372 5.000000000000022
    vertex 2140.177478394353 619.2307475568372 20.00000000000002
    vertex 2140.177478394353 619.2307475568372 5.000000000000022
  endloop
endfacet
facet normal 1.0 0.0 0.0
  outer loop
    vertex 2140.177478394353 619.2307475568372 20.00000000000002
    vertex 2140.177478394353 633.2307475568372 5.000000000000022
    vertex 2140.177478394353 633.2307475568372 20.00000000000002
  endloop
endfacet
facet normal -0.10989212953970229 0.9897534507123141 -0.09116921996099557
  outer loop
    vertex 2145.460945380958 640.2278565454756 20.00000000000002
    vertex 2143.934115651489 638.2160717235053 0.0
    vertex 2141.8285329132577 639.8245505088512 20.00000000000002
  endloop
endfacet
facet normal -0.7965676836830381 0.6045493572172908 5.4623545295146605e-15
  outer loop
    vertex 2145.460945380958 640.2278565454758 0.0
    vertex 2143.934115651489 638.2160717235053 0.0
    vertex 2145.460945380958 640.2278565454756 20.00000000000002
  endloop
endfacet
facet normal -0.8529894777793637 0.5053641807146242 -0.13044537419289665
  outer loop
    vertex 2141.8285329132577 639.8245505088512 20.00000000000002
    vertex 2143.934115651489 638.2160717235053 0.0
    vertex 2142.6467851030948 636.043223994861 0.0
  endloop
endfacet
facet normal -0.0 -1.0 -0.0
  outer loop
    vertex 2150.1764458902953 633.2307475568372 20.00000000000002
    vertex 2140.177478394353 633.2307475568372 5.000000000000022
    vertex 2150.1764458902953 633.2307475568372 5.000000000000022
  endloop
endfacet
facet normal -0.0 -1.0 -0.0
  outer loop
    vertex 2140.177478394353 633.2307475568372 5.000000000000022
    vertex 2150.1764458902953 633.2307475568372 20.00000000000002
    vertex 2140.177478394353 633.2307475568372 20.00000000000002
  endloop
endfacet
facet normal -1.0 0.0 -0.0
  outer loop
    vertex 2150.1764458902953 633.2307475568372 20.00000000000002
    vertex 2150.1764458902953 619.2307475568372 5.000000000000022
    vertex 2150.1764458902953 619.2307475568372 20.00000000000002
  endloop
endfacet
facet normal -1.0 0.0 -0.0
  outer loop
    vertex 2150.1764458902953 619.2307475568372 5.000000000000022
    vertex 2150.1764458902953 633.2307475568372 20.00000000000002
    vertex 2150.1764458902953 633.2307475568372 5.000000000000022
  endloop
endfacet
facet normal -0.35737007585509717 0.9149272063778482 -0.1876028675499097
  outer loop
    vertex 2141.8285329132577 639.8245505088512 20.00000000000002
    vertex 2142.6467851030948 636.043223994861 0.0
    vertex 2138.4242751822553 638.4948492658684 20.00000000000002
  endloop
endfacet
facet normal 0.899711334783434 -0.17474475583054835 -0.39997972995132386
  outer loop
    vertex 2149.979894341159 623.6111534045546 0.0
    vertex 2158.6229810692985 622.3332237686056 20.00000000000002
    vertex 2149.4983689859373 621.1319155125838 0.0
  endloop
endfacet
facet normal 0.0 0.0 1.0
  outer loop
    vertex 2132.9123441812667 619.4785768487951 20.00000000000002
    vertex 2133.5413719871135 623.3652348635347 20.00000000000002
    vertex 2133.19617825742 626.4742535581356 20.00000000000002
  endloop
endfacet
facet normal 0.0 0.0 1.0
  outer loop
    vertex 2133.5413719871135 623.3652348635347 20.00000000000002
    vertex 2132.9123441812667 619.4785768487951 20.00000000000002
    vertex 2135.0778236883298 616.5344683930565 20.00000000000002
  endloop
endfacet
facet normal 0.0 0.0 1.0
  outer loop
    vertex 2133.5413719871135 623.3652348635347 20.00000000000002
    vertex 2135.0778236883298 616.5344683930565 20.00000000000002
    vertex 2134.679476775442 620.4514961234971 20.00000000000002
  endloop
endfacet
facet normal 0.0 0.0 1.0
  outer loop
    vertex 2134.679476775442 620.4514961234971 20.00000000000002
    vertex 2135.0778236883298 616.5344683930565 20.00000000000002
    vertex 2136.5329326618826 617.9316038179791 20.00000000000002
  endloop
endfacet
facet normal 0.0 0.0 1.0
  outer loop
    vertex 2136.5329326618826 617.9316038179791 20.00000000000002
    vertex 2135.0778236883298 616.5344683930565 20.00000000000002
    vertex 2137.9315076096996 614.2511453384691 20.00000000000002
  endloop
endfacet
facet normal 0.0 0.0 1.0
  outer loop
    vertex 2136.5329326618826 617.9316038179791 20.00000000000002
    vertex 2137.9315076096996 614.2511453384691 20.00000000000002
    vertex 2138.97542969076 615.97728444328 20.00000000000002
  endloop
endfacet
facet normal 0.0 0.0 1.0
  outer loop
    vertex 2138.97542969076 615.97728444328 20.00000000000002
    vertex 2137.9315076096996 614.2511453384691 20.00000000000002
    vertex 2141.278922102065 612.784212377835 20.00000000000002
  endloop
endfacet
facet normal 0.0 0.0 1.0
  outer loop
    vertex 2138.97542969076 615.97728444328 20.00000000000002
    vertex 2141.278922102065 612.784212377835 20.00000000000002
    vertex 2141.8405157259726 614.7217216351205 20.00000000000002
  endloop
endfacet
facet normal 0.0 0.0 1.0
  outer loop
    vertex 2141.8405157259726 614.7217216351205 20.00000000000002
    vertex 2141.278922102065 612.784212377835 20.00000000000002
    vertex 2144.891946399633 612.2336385681998 20.00000000000002
  endloop
endfacet
facet normal 0.0 0.0 1.0
  outer loop
    vertex 2141.8405157259726 614.7217216351205 20.00000000000002
    vertex 2144.891946399633 612.2336385681998 20.00000000000002
    vertex 2144.932939888998 614.2504799239622 20.00000000000002
  endloop
endfacet
facet normal 0.0 0.0 1.0
  outer loop
    vertex 2144.932939888998 614.2504799239622 20.00000000000002
    vertex 2144.891946399633 612.2336385681998 20.00000000000002
    vertex 2148.5243588673343 612.6369446048238 20.00000000000002
  endloop
endfacet
facet normal 0.0 0.0 1.0
  outer loop
    vertex 2144.932939888998 614.2504799239622 20.00000000000002
    vertex 2148.5243588673343 612.6369446048238 20.00000000000002
    vertex 2148.0419585835994 614.595673653655 20.00000000000002
  endloop
endfacet
facet normal 0.0 0.0 1.0
  outer loop
    vertex 2148.0419585835994 614.595673653655 20.00000000000002
    vertex 2148.5243588673343 612.6369446048238 20.00000000000002
    vertex 2150.955697323637 615.7337784419825 20.00000000000002
  endloop
endfacet
facet normal 0.0 0.0 1.0
  outer loop
    vertex 2150.955697323637 615.7337784419825 20.00000000000002
    vertex 2148.5243588673343 612.6369446048238 20.00000000000002
    vertex 2151.928616598338 613.966645847807 20.00000000000002
  endloop
endfacet
facet normal 0.0 0.0 1.0
  outer loop
    vertex 2150.955697323637 615.7337784419825 20.00000000000002
    vertex 2151.928616598338 613.966645847807 20.00000000000002
    vertex 2153.4755896291563 617.587234328424 20.00000000000002
  endloop
endfacet
facet normal 0.0 0.0 1.0
  outer loop
    vertex 2153.4755896291563 617.587234328424 20.00000000000002
    vertex 2151.928616598338 613.966645847807 20.00000000000002
    vertex 2154.8727250540774 616.1321253548729 20.00000000000002
  endloop
endfacet
facet normal 0.0 0.0 1.0
  outer loop
    vertex 2153.4755896291563 617.587234328424 20.00000000000002
    vertex 2154.8727250540774 616.1321253548729 20.00000000000002
    vertex 2155.4299090038535 620.0297313573014 20.00000000000002
  endloop
endfacet
facet normal 0.0 0.0 1.0
  outer loop
    vertex 2155.4299090038535 620.0297313573014 20.00000000000002
    vertex 2154.8727250540774 616.1321253548729 20.00000000000002
    vertex 2157.156048108664 618.9858092762411 20.00000000000002
  endloop
endfacet
facet normal 0.0 0.0 1.0
  outer loop
    vertex 2155.4299090038535 620.0297313573014 20.00000000000002
    vertex 2157.156048108664 618.9858092762411 20.00000000000002
    vertex 2156.685471812013 622.8948173925144 20.00000000000002
  endloop
endfacet
facet normal 0.0 0.0 1.0
  outer loop
    vertex 2156.685471812013 622.8948173925144 20.00000000000002
    vertex 2157.156048108664 618.9858092762411 20.00000000000002
    vertex 2157.156713523171 625.9872415555396 20.00000000000002
  endloop
endfacet
facet normal 0.0 0.0 1.0
  outer loop
    vertex 2157.156713523171 625.9872415555396 20.00000000000002
    vertex 2157.156048108664 618.9858092762411 20.00000000000002
    vertex 2158.6229810692985 622.3332237686056 20.00000000000002
  endloop
endfacet
facet normal 0.0 0.0 1.0
  outer loop
    vertex 2157.156713523171 625.9872415555396 20.00000000000002
    vertex 2158.6229810692985 622.3332237686056 20.00000000000002
    vertex 2157.440547599326 632.9829182648797 20.00000000000002
  endloop
endfacet
facet normal 0.0 0.0 1.0
  outer loop
    vertex 2157.440547599326 632.9829182648797 20.00000000000002
    vertex 2158.6229810692985 622.3332237686056 20.00000000000002
    vertex 2158.7702488423097 629.5786605338745 20.00000000000002
  endloop
endfacet
facet normal 0.0 0.0 1.0
  outer loop
    vertex 2158.7702488423097 629.5786605338745 20.00000000000002
    vertex 2158.6229810692985 622.3332237686056 20.00000000000002
    vertex 2159.173554878934 625.9462480661748 20.00000000000002
  endloop
endfacet
facet normal 0.0 0.0 1.0
  outer loop
    vertex 2131.582642938282 622.8828345798006 20.00000000000002
    vertex 2131.729910711293 630.12827134507 20.00000000000002
    vertex 2131.1793369016586 626.5152470475002 20.00000000000002
  endloop
endfacet
facet normal 0.0 0.0 1.0
  outer loop
    vertex 2131.729910711293 630.12827134507 20.00000000000002
    vertex 2131.582642938282 622.8828345798006 20.00000000000002
    vertex 2132.9123441812667 619.4785768487951 20.00000000000002
  endloop
endfacet
facet normal 0.0 0.0 1.0
  outer loop
    vertex 2131.729910711293 630.12827134507 20.00000000000002
    vertex 2132.9123441812667 619.4785768487951 20.00000000000002
    vertex 2133.196843671927 633.4756858374346 20.00000000000002
  endloop
endfacet
facet normal 0.0 0.0 1.0
  outer loop
    vertex 2133.196843671927 633.4756858374346 20.00000000000002
    vertex 2132.9123441812667 619.4785768487951 20.00000000000002
    vertex 2133.19617825742 626.4742535581356 20.00000000000002
  endloop
endfacet
facet normal 0.0 0.0 1.0
  outer loop
    vertex 2133.196843671927 633.4756858374346 20.00000000000002
    vertex 2133.19617825742 626.4742535581356 20.00000000000002
    vertex 2133.667419968579 629.566677721161 20.00000000000002
  endloop
endfacet
facet normal 0.0 0.0 1.0
  outer loop
    vertex 2133.196843671927 633.4756858374346 20.00000000000002
    vertex 2133.667419968579 629.566677721161 20.00000000000002
    vertex 2135.4801667265133 636.3293697588024 20.00000000000002
  endloop
endfacet
facet normal 0.0 0.0 1.0
  outer loop
    vertex 2135.4801667265133 636.3293697588024 20.00000000000002
    vertex 2133.667419968579 629.566677721161 20.00000000000002
    vertex 2134.9229827767376 632.4317637563737 20.00000000000002
  endloop
endfacet
facet normal 0.0 0.0 1.0
  outer loop
    vertex 2135.4801667265133 636.3293697588024 20.00000000000002
    vertex 2134.9229827767376 632.4317637563737 20.00000000000002
    vertex 2136.877302151437 634.8742607852511 20.00000000000002
  endloop
endfacet
facet normal 0.0 0.0 1.0
  outer loop
    vertex 2135.4801667265133 636.3293697588024 20.00000000000002
    vertex 2136.877302151437 634.8742607852511 20.00000000000002
    vertex 2138.4242751822553 638.4948492658684 20.00000000000002
  endloop
endfacet
facet normal 0.0 0.0 1.0
  outer loop
    vertex 2138.4242751822553 638.4948492658684 20.00000000000002
    vertex 2136.877302151437 634.8742607852511 20.00000000000002
    vertex 2139.3971944569553 636.7277166716934 20.00000000000002
  endloop
endfacet
facet normal 0.0 0.0 1.0
  outer loop
    vertex 2138.4242751822553 638.4948492658684 20.00000000000002
    vertex 2139.3971944569553 636.7277166716934 20.00000000000002
    vertex 2141.8285329132577 639.8245505088512 20.00000000000002
  endloop
endfacet
facet normal 0.0 0.0 1.0
  outer loop
    vertex 2141.8285329132577 639.8245505088512 20.00000000000002
    vertex 2139.3971944569553 636.7277166716934 20.00000000000002
    vertex 2142.3109331969927 637.8658214600201 20.00000000000002
  endloop
endfacet
facet normal 0.0 0.0 1.0
  outer loop
    vertex 2141.8285329132577 639.8245505088512 20.00000000000002
    vertex 2142.3109331969927 637.8658214600201 20.00000000000002
    vertex 2145.460945380958 640.2278565454756 20.00000000000002
  endloop
endfacet
facet normal 0.0 0.0 1.0
  outer loop
    vertex 2145.460945380958 640.2278565454756 20.00000000000002
    vertex 2142.3109331969927 637.8658214600201 20.00000000000002
    vertex 2145.419951891594 638.2110151897132 20.00000000000002
  endloop
endfacet
facet normal 0.0 0.0 1.0
  outer loop
    vertex 2145.460945380958 640.2278565454756 20.00000000000002
    vertex 2145.419951891594 638.2110151897132 20.00000000000002
    vertex 2148.5123760546194 637.7397734785549 20.00000000000002
  endloop
endfacet
facet normal 0.0 0.0 1.0
  outer loop
    vertex 2145.460945380958 640.2278565454756 20.00000000000002
    vertex 2148.5123760546194 637.7397734785549 20.00000000000002
    vertex 2149.0739696785286 639.6772827358404 20.00000000000002
  endloop
endfacet
facet normal 0.0 0.0 1.0
  outer loop
    vertex 2149.0739696785286 639.6772827358404 20.00000000000002
    vertex 2148.5123760546194 637.7397734785549 20.00000000000002
    vertex 2151.3774620898307 636.4842106703954 20.00000000000002
  endloop
endfacet
facet normal 0.0 0.0 1.0
  outer loop
    vertex 2149.0739696785286 639.6772827358404 20.00000000000002
    vertex 2151.3774620898307 636.4842106703954 20.00000000000002
    vertex 2152.421384170894 638.2103497752059 20.00000000000002
  endloop
endfacet
facet normal 0.0 0.0 1.0
  outer loop
    vertex 2152.421384170894 638.2103497752059 20.00000000000002
    vertex 2151.3774620898307 636.4842106703954 20.00000000000002
    vertex 2153.8199591187085 634.5298912956963 20.00000000000002
  endloop
endfacet
facet normal 0.0 0.0 1.0
  outer loop
    vertex 2152.421384170894 638.2103497752059 20.00000000000002
    vertex 2153.8199591187085 634.5298912956963 20.00000000000002
    vertex 2155.275068092263 635.9270267206183 20.00000000000002
  endloop
endfacet
facet normal 0.0 0.0 1.0
  outer loop
    vertex 2155.275068092263 635.9270267206183 20.00000000000002
    vertex 2153.8199591187085 634.5298912956963 20.00000000000002
    vertex 2155.6734150051507 632.0099989901784 20.00000000000002
  endloop
endfacet
facet normal 0.0 0.0 1.0
  outer loop
    vertex 2155.275068092263 635.9270267206183 20.00000000000002
    vertex 2155.6734150051507 632.0099989901784 20.00000000000002
    vertex 2157.440547599326 632.9829182648797 20.00000000000002
  endloop
endfacet
facet normal 0.0 0.0 1.0
  outer loop
    vertex 2157.440547599326 632.9829182648797 20.00000000000002
    vertex 2155.6734150051507 632.0099989901784 20.00000000000002
    vertex 2156.8115197934767 629.0962602501406 20.00000000000002
  endloop
endfacet
facet normal 0.0 0.0 1.0
  outer loop
    vertex 2157.440547599326 632.9829182648797 20.00000000000002
    vertex 2156.8115197934767 629.0962602501406 20.00000000000002
    vertex 2157.156713523171 625.9872415555396 20.00000000000002
  endloop
endfacet
facet normal 0.9094347667495105 -0.07061664879355306 -0.40980689835632517
  outer loop
    vertex 2150.175413386238 626.1291405958866 0.0
    vertex 2159.173554878934 625.9462480661748 20.00000000000002
    vertex 2149.979894341159 623.6111534045546 0.0
  endloop
endfacet
endsolid Sword2
